<?xml version="1.0" encoding="utf-8"?>
<svg width="21px" height="23px" version="1.1" xmlns:xlink="http://www.w3.org/1999/xlink" xmlns="http://www.w3.org/2000/svg">
    <g id="icon-24px-calendar">
        <g id="icon-24px-calendar">
            <path d="M18 2L17 2L17 1C17 0.45 16.55 0 16 0C15.45 0 15 0.45 15 1L15 2L5 2L5 1C5 0.45 4.55 0 4 0C3.45 0 3 0.45 3 1L3 2L2 2C0.9 2 0 2.9 0 4L0 20C0 21.1 0.9 22 2 22L18 22C19.1 22 20 21.1 20 20L20 4C20 2.9 19.1 2 18 2ZM17 20L3 20C2.45 20 2 19.55 2 19L2 7L18 7L18 19C18 19.55 17.55 20 17 20Z" transform="translate(0.4883721 0.14563954)" id="Shape" fill="#F1CA12" stroke="none" />
        </g>
    </g>
</svg>