<svg width="49px" height="66px" viewBox="0 0 49 66" version="1.1" xmlns="http://www.w3.org/2000/svg" xmlns:xlink="http://www.w3.org/1999/xlink">
    <g id="Symbols" stroke="none" stroke-width="1" fill="none" fill-rule="evenodd">
        <g id="kids" transform="translate(-81.000000, -40.000000)" fill="#FFFFFF" fill-rule="nonzero">
            <g id="icon-60px-molino" transform="translate(110.000000, 75.555556) rotate(-21.000000) translate(-110.000000, -75.555556) translate(90.000000, 44.000000)">
                <path d="M39.5771869,19.6787334 C39.5556578,19.4657795 39.4626519,19.2685727 39.3114559,19.1173767 C39.3056738,19.1115945 30.5022274,10.3081481 30.5022274,10.3081481 L37.107734,3.70264154 C37.7285112,3.08174139 37.9139077,2.15586571 37.5797756,1.34378687 C37.2457665,0.531708036 36.4625982,0.00430582629 35.5800269,0 L19.8119679,0 C19.5692424,0 19.3309456,0.0987879575 19.1593277,0.270405891 C19.1588356,0.270897986 10.3500992,9.07975742 10.3500992,9.07975742 L3.74459259,2.47425081 C3.12381546,1.85335066 2.19781676,1.66807711 1.38573793,2.0020862 C0.573659086,2.33621832 0.0462568768,3.11938661 0.0419510505,4.00195798 L0.0419510505,19.7697708 C0.0419510505,19.9849391 0.117118475,20.187436 0.251091185,20.3548711 C0.270405891,20.3784917 0.29082781,20.401128 0.312356942,20.4226571 L3.51503054,23.6253307 C3.87536669,23.9856669 4.4596058,23.9856669 4.81981893,23.6253307 C5.18015508,23.2649946 5.18015508,22.6808785 4.81981893,22.3205423 L3.19209357,20.692817 L15.3945592,20.692817 C15.5153684,21.2720121 15.747514,21.8109786 16.0676214,22.2859727 L10.4263738,27.9270972 L7.83168291,25.3324063 C7.47134676,24.9720702 6.88710765,24.9720702 6.52689452,25.3324063 C6.16655837,25.6927425 6.16655837,26.2769816 6.52689452,26.6371947 L9.12158545,29.2318856 L2.51607884,35.8373922 C1.89530171,36.4582924 1.70990513,37.3842911 2.04403725,38.1962469 C2.37816937,39.0083258 3.16133767,39.535728 4.04378601,39.5399108 L16.7735309,39.5399108 L16.7735309,59.9598614 C16.7735309,61.6351969 18.1365094,62.9982985 19.8119679,62.9982985 C21.4874265,62.9982985 22.850405,61.6351969 22.850405,59.9598614 L22.850405,48.170632 C22.850405,47.6610682 22.4372917,47.2479549 21.927728,47.2479549 C21.4181642,47.2479549 21.0050509,47.6610682 21.0050509,48.170632 L21.0050509,59.9598614 C21.0050509,60.6176686 20.4697752,61.1529443 19.8119679,61.1529443 C19.1541607,61.1529443 18.618885,60.6176686 18.618885,59.9598614 L18.618885,39.5399108 L19.8119679,39.5399108 C20.0543245,39.5399108 20.2923751,39.4416149 20.4644852,39.2695049 C20.4644852,39.2695049 20.6653827,39.0686073 21.0049279,38.7290622 L21.0049279,43.9007286 C21.0049279,44.4102924 21.4180412,44.8234057 21.9276049,44.8234057 C22.4371687,44.8234057 22.850282,44.4102924 22.850282,43.9007286 L22.850282,36.883708 C25.4591206,34.2748694 29.2737137,30.4602764 29.2737137,30.4602764 L35.8792203,37.065783 C36.2950401,37.4814797 36.8475391,37.7019381 37.4109872,37.7019381 C37.6890206,37.7019381 37.9697605,37.6481767 38.2380749,37.5379476 C39.0501538,37.2038155 39.577556,36.4206472 39.5817388,35.5381988 L39.5817388,19.7702629 C39.5818618,19.7398761 39.5802625,19.7093663 39.5771869,19.6787334 Z M36.4315963,18.8473398 L24.2291306,18.8473398 C24.1083214,18.2680217 23.8761759,17.7291783 23.5560684,17.2541841 L29.197316,11.6130596 L36.4315963,18.8473398 Z M19.8119679,22.4370457 C18.3413437,22.4370457 17.1448161,21.2405181 17.1448161,19.7698939 C17.1448161,18.2992697 18.3413437,17.102742 19.8119679,17.102742 C21.2825922,17.102742 22.4791198,18.2992697 22.4791198,19.7698939 C22.4791198,21.2405181 21.2825922,22.4370457 19.8119679,22.4370457 Z M35.575475,1.84535413 C35.763086,1.84621529 35.8425592,1.9713303 35.8731921,2.04588261 C35.903825,2.12043491 35.9354421,2.26511068 35.8028226,2.39785315 L22.2345488,15.9660039 C21.7825601,15.6771445 21.276564,15.4657899 20.734522,15.3527312 L20.734522,1.84535413 L35.575475,1.84535413 Z M18.8892909,3.15014252 L18.8892909,15.3526082 C18.3099727,15.4734174 17.7711293,15.7054399 17.2961352,16.0256703 L11.6548876,10.3844228 L18.8892909,3.15014252 Z M1.88730518,18.8473398 L1.88730518,4.00626381
C1.88816634,3.8186528 2.01328135,3.73917955 2.08771063,3.70854668 C2.16213992,3.6779138 2.3069387,3.64629673 2.43968118,3.7790392 L16.0078319,17.34719 C15.7189725,17.7991787 15.5076179,18.3051748 15.3944362,18.8472168 L1.88730518,18.8473398 Z M4.04821486,37.6945566 C3.86060386,37.6936955 3.78125363,37.5685805 3.75062075,37.4941512 C3.71998787,37.4197219 3.6883708,37.2749231 3.82099025,37.1421806 L17.389141,23.5739069 C17.8411297,23.8627663 18.3471258,24.0741209 18.8891679,24.1873026 L18.8891679,37.6945566 L4.04821486,37.6945566 Z M20.734645,36.3896452 L20.734645,24.1871796 C21.3139632,24.0663704 21.8528066,23.8343478 22.3278007,23.5141174 L27.9689253,29.1552419 L20.734645,36.3896452 Z M37.7365077,35.533647 C37.7356465,35.721258 37.6105315,35.8006082 37.5361022,35.8312411 C37.4616729,35.861997 37.3167511,35.893491 37.1841317,35.7608716 L23.6158579,22.1927208 C23.9047173,21.7407321 24.1160719,21.234736 24.2291306,20.692694 L37.7365077,20.692694 L37.7363847,35.533647 L37.7365077,35.533647 Z" id="Shape"></path>
            </g>
        </g>
    </g>
</svg>