<?xml version="1.0" encoding="utf-8"?>
<svg width="24px" height="24px" version="1.1" xmlns:xlink="http://www.w3.org/1999/xlink" xmlns="http://www.w3.org/2000/svg">
    <g id="icon-24px-person">
        <g id="icon-24px-person">
            <path d="M0 0L24 0L24 24L0 24L0 0Z" id="Path" fill="none" fill-rule="evenodd" stroke="none" />
            <path d="M8 8C10.21 8 12 6.21 12 4C12 1.79 10.21 0 8 0C5.79 0 4 1.79 4 4C4 6.21 5.79 8 8 8ZM8 10C5.33 10 0 11.34 0 14L0 15C0 15.55 0.45 16 1 16L15 16C15.55 16 16 15.55 16 15L16 14C16 11.34 10.67 10 8 10Z" transform="translate(4 4)" id="Shape" fill="#F1CA12" stroke="none" />
        </g>
    </g>
</svg>