<svg width="60px" height="61px" viewBox="0 0 60 61" version="1.1" xmlns="http://www.w3.org/2000/svg" xmlns:xlink="http://www.w3.org/1999/xlink">
    <g id="Symbols" stroke="none" stroke-width="1" fill="none" fill-rule="evenodd">
        <g id="city-tour" transform="translate(-81.000000, -42.000000)" fill="#FFFFFF">
            <g id="activity">
                <g id="icon-60px-destino" transform="translate(81.000000, 42.627008)">
                    <g id="Combined-Shape">
                        <path d="M14.7384375,18.0353906 C22.8501562,18.0353906 29.4495703,24.6348047 29.4494531,32.7467578 C29.4494531,36.1864453 28.3035937,39.8569922 26.04375,43.6566797 C25.7954297,44.0743359 25.2554297,44.2114453 24.8377734,43.963125 C24.4201172,43.7148047 24.2830078,43.1749219 24.5313281,42.7571484 C26.6271094,39.2334375 27.6897656,35.8654688 27.6897656,32.7467578 C27.6897656,25.6053516 21.8797266,19.7953125 14.7383203,19.7953125 C7.59691406,19.7953125 1.786875,25.6053516 1.786875,32.7467578 C1.786875,39.9291797 7.40601562,46.8544922 11.3912109,50.8628906 C11.5841016,50.9491406 11.7421875,51.1038281 11.8321875,51.3010547 C13.0862109,52.5331641 14.1389062,53.4467578 14.7387891,53.9478516 C15.3453516,53.4418359 16.4143359,52.5157031 17.6846484,51.2673047 C17.7698437,51.10125 17.9057812,50.9695313 18.0683203,50.8865625 C19.4864062,49.4642578 21.1115625,47.6736328 22.6129687,45.6360938 C22.90125,45.2449219 23.4522656,45.1617188 23.8432031,45.4496484 C24.234375,45.7379297 24.3178125,46.2885938 24.0295312,46.6798828 C22.7859375,48.3673828 21.4753125,49.8802734 20.2572656,51.1661719 C23.3061328,51.9992578 25.1373047,53.4957422 25.1373047,55.2405469 C25.1373047,58.3317188 19.779375,59.9998828 14.7379687,59.9998828 C9.69667969,59.9998828 4.33863281,58.3318359 4.33863281,55.2405469 C4.33863281,53.4943359 6.17039062,51.9982031 9.22125,51.1654688 C8.54988281,50.4566016 7.85027344,49.6796484 7.14820312,48.8411719 C2.42308594,43.1978906 0.0273046875,37.7828906 0.0273046875,32.7465234 C0.0273046875,24.6348047 6.62671875,18.0353906 14.7384375,18.0353906 Z M14.1999609,55.7778516 C14.1064453,55.7054297 12.6341016,54.5585156 10.6634766,52.6310156 C7.69441406,53.2361719 6.09832031,54.4007813 6.09832031,55.2406641 C6.09832031,56.4636328 9.46394531,58.2404297 14.7380859,58.2404297 C17.1697266,58.2404297 19.4423437,57.8599219 21.1373437,57.1691016 C22.5193359,56.6060156 23.3778516,55.8670313 23.3778516,55.2406641 C23.3778516,54.4019531 21.7822266,53.2367578 18.8148047,52.6316016 C16.8550781,54.5477344 15.3848437,55.6942969 15.2769141,55.7778516 C15.1183594,55.9005469 14.9283984,55.9618359 14.7384375,55.9618359 C14.5484766,55.9618359 14.3583984,55.9005469 14.1999609,55.7778516 Z M14.7384375,26.3500781 C18.2653125,26.3500781 21.1347656,29.2195313 21.1348828,32.7465234 C21.1348828,36.2735156 18.2654297,39.1428516 14.7385547,39.1428516 C11.2115625,39.1428516 8.34222656,36.2733984 8.34222656,32.7465234 C8.34222656,32.1459375 8.42554687,31.5514453 8.58972656,30.9792188 C8.72390625,30.5122266 9.21128906,30.2426953 9.67816406,30.3762891 C10.1451562,30.5104688 10.4150391,30.9977344 10.2809766,31.4647266 C10.1620312,31.8788672 10.1016797,32.3102344 10.1016797,32.7465234 C10.1016797,35.3030859 12.1816406,37.3831641 14.7383203,37.3831641 C17.295,37.3831641 19.3749609,35.3032031 19.3749609,32.7465234 C19.3749609,30.1897266 17.295,28.1097656 14.7383203,28.1097656 C13.7294531,28.1097656 12.7705078,28.4280469 11.9653125,29.0300391 C11.57625,29.3207813 11.0248828,29.2412109 10.7337891,28.8521484 C10.4429297,28.4629688 10.5226172,27.9116016 10.9116797,27.620625 C12.0235547,26.7894141 13.3468359,26.3500781 14.7384375,26.3500781 Z M53.0810156,25.5610547 C55.348125,26.2433203 56.6583984,27.4042969 56.6585156,28.7984766 C56.6585156,29.9764453 55.7029687,31.0146094 53.9680078,31.7217188 C52.483125,32.3267578 50.5278516,32.6600391 48.4624219,32.6600391 C46.396875,32.6600391 44.4416016,32.3267578 42.9568359,31.7217188 C41.2215234,31.0147266 40.2659766,29.9765625 40.2659766,28.7985938 C40.2659766,27.4018359 41.5753125,26.2419141 43.8433594,25.5604688 C43.3959375,25.0802344
42.9351562,24.5629688 42.4728516,24.0108984 C38.8096875,19.6358203 36.9523828,15.4300781 36.9523828,11.5101563 C36.9523828,11.0241797 37.3463672,10.6303125 37.8322266,10.6303125 C38.3183203,10.6303125 38.7120703,11.0241797 38.7120703,11.5101563 C38.7120703,16.9490625 42.9706641,22.2069141 46.0085156,25.265625 C46.1751562,25.3491797 46.3139062,25.4841797 46.3998047,25.6544531 C47.2610156,26.4986719 47.9955469,27.1441406 48.4621875,27.5384766 C50.5796484,25.7465625 58.2130078,18.7808203 58.2130078,11.5101563 C58.2130078,6.13371094 53.8389844,1.75957031 48.4625391,1.75957031 C44.5347656,1.75957031 41.008125,4.09734375 39.4778906,7.71515625 C39.28875,8.16257813 38.7723047,8.37175781 38.3248828,8.18261719 C37.8774609,7.99347656 37.6680469,7.47714844 37.8574219,7.02960938 C39.6633984,2.75929688 43.82625,3.21875859e-12 48.4625391,3.21875859e-12 C54.8091797,3.21875859e-12 59.9725781,5.16351563 59.9725781,11.5100391 C59.9725781,15.4300781 58.1152734,19.6358203 54.4522266,24.0107813 C53.9898047,24.5632031 53.5286719,25.0807031 53.0810156,25.5610547 Z M48.4623047,30.9002344 C52.6269141,30.9002344 54.8988281,29.5117969 54.8990625,28.7983594 C54.8990625,28.5405469 54.5966016,28.2023438 54.09,27.8936719 C53.4939844,27.5308594 52.6422656,27.2237109 51.6590625,27.0140625 C50.1741797,28.45875 49.0722656,29.3173828 49.0011328,29.3723438 C48.8424609,29.4950391 48.6526172,29.5563281 48.4626562,29.5563281 C48.2726953,29.5563281 48.0827344,29.4950391 47.9241797,29.3723438 C47.8530469,29.3171484 46.7508984,28.4586328 45.2660156,27.0138281 C43.0591406,27.4830469 42.0256641,28.3335938 42.0256641,28.7983594 C42.0256641,29.5117969 44.2975781,30.9002344 48.4623047,30.9002344 Z M48.4625391,6.39046875 C51.2855859,6.39046875 53.5822266,8.68722656 53.5822266,11.5102734 C53.5822266,14.3333203 51.2855859,16.6298438 48.4625391,16.6298438 C45.6394922,16.6298438 43.3428516,14.3332031 43.3428516,11.5102734 C43.3428516,8.68710938 45.6396094,6.39046875 48.4625391,6.39046875 Z M48.4626562,14.8701563 C50.3153906,14.8701563 51.8226562,13.3628906 51.8227734,11.5101563 C51.8227734,9.65730469 50.3153906,8.15003906 48.4626562,8.15003906 C46.6098047,8.15003906 45.1025391,9.65742188 45.1025391,11.5101563 C45.1025391,13.3628906 46.6096875,14.8701563 48.4626562,14.8701563 Z M37.0496484,27.9186328 C37.535625,27.9186328 37.9294922,28.3125 37.9294922,28.7985938 C37.9294922,29.2846875 37.535625,29.6784375 37.0496484,29.6785547 L36.6480469,29.6785547 C36.4328906,29.6785547 36.2169141,29.6927344 36.0060937,29.7207422 C35.9667187,29.7260156 35.9275781,29.7284766 35.8889062,29.7284766 C35.4546094,29.7284766 35.0767969,29.4069141 35.0178516,28.9645313 C34.9538672,28.4826563 35.2924219,28.0403906 35.7739453,27.9762891 C36.0615234,27.9379688 36.3554297,27.9186328 36.6479297,27.9186328 L37.0496484,27.9186328 Z M34.1409375,54.3159375 C34.6250391,54.3159375 35.0185547,54.7071094 35.0206641,55.1917969 C35.0227734,55.6776563 34.6306641,56.0733984 34.1448047,56.075625 L32.9786719,56.0808984 C32.4946875,56.0808984 32.1010547,55.6896094 32.0989453,55.2050391 C32.0968359,54.7191797 32.4889453,54.3234375 32.9748047,54.3212109 L34.1409375,54.3159375 Z M38.0936719,39.3151172 C38.5797656,39.3151172 38.9735156,39.7091016 38.9735156,40.1949609 C38.9735156,40.6810547 38.5796484,41.0748047 38.0936719,41.0748047 L36.9316406,41.0748047 C36.4455469,41.0748047 36.0517969,40.6809375 36.0517969,40.1949609 C36.0517969,39.7091016 36.4456641,39.3151172 36.9316406,39.3151172 L38.0936719,39.3151172 Z M33.4317187,29.71125 C33.7611328,30.0684375 33.73875,30.6250781 33.3815625,30.9544922 C33.1409766,31.1764453 32.9220703,31.4239453 32.7310547,31.6898438 C32.5591406,31.9291406 32.289375,32.0565234 32.0157422,32.0565234 C31.8379687,32.0565234 31.6584375,32.0028516 31.5031641,31.8912891 C31.1084766,31.6078125 31.0182422,31.0580859 31.3017187,30.6632813 C31.5621094,30.3007031 31.8604687,29.9635547 32.1884766,29.6610938 C32.5458984,29.3317969 33.1023047,29.3542969 33.4317187,29.71125 Z M38.7892969,54.2946094 C39.2732812,54.2946094 39.6667969,54.6858984 39.6690234,55.1704688 C39.6711328,55.6563281
39.2790234,56.0521875 38.7931641,56.0542969 L37.6271484,56.0595703 C37.1431641,56.0595703 36.7495312,55.6682813 36.7474219,55.1837109 C36.7453125,54.6978516 37.1374219,54.3019922 37.6232812,54.2998828 L38.7892969,54.2946094 Z M29.4926953,54.3369141 C29.9767969,54.3369141 30.3703125,54.7280859 30.3724219,55.2127734 C30.3745312,55.6986328 29.9824219,56.094375 29.4965625,56.0966016 L28.3304297,56.101875 C27.8462109,56.101875 27.4529297,55.7105859 27.4507031,55.2260156 C27.4485937,54.7401563 27.8407031,54.3444141 28.3265625,54.3421875 L29.4926953,54.3369141 Z M34.0815234,38.5755469 C34.4925,38.8347656 34.6156641,39.3781641 34.3563281,39.7890234 C34.1888672,40.0544531 33.9032812,40.1996484 33.61125,40.1996484 C33.4507031,40.1996484 33.2883984,40.1558203 33.1426172,40.0638281 C32.7655078,39.8259375 32.4110156,39.5483203 32.0889844,39.2385938 C31.7388281,38.9017969 31.7279297,38.3448047 32.0648437,37.9946484 C32.4015234,37.6447266 32.9586328,37.6335938 33.3089062,37.9705078 C33.5450391,38.1975 33.8050781,38.4011719 34.0815234,38.5755469 Z M31.9187109,35.4242578 C32.0115234,35.9012109 31.7002734,36.3631641 31.2232031,36.4560938 C31.1664844,36.4672266 31.1097656,36.4725 31.0541016,36.4725 C30.6414844,36.4725 30.2732812,36.1810547 30.1914844,35.7609375 C30.1108594,35.3471484 30.0699609,34.921875 30.0699609,34.4969531 L30.0703125,34.4275781 C30.0759375,33.9451172 30.46875,33.5579297 30.9499219,33.5579297 C30.9534375,33.5579297 30.9569531,33.5579297 30.9603516,33.5580469 C31.4463281,33.5636719 31.835625,33.9621094 31.8298828,34.4479688 L31.8296484,34.4968359 C31.8296484,34.8090234 31.8596484,35.1209766 31.9187109,35.4242578 Z M42.7421484,39.3151172 C43.228125,39.3151172 43.6219922,39.7091016 43.6219922,40.1949609 C43.6219922,40.6810547 43.228125,41.0748047 42.7421484,41.0748047 L41.5801172,41.0748047 C41.0941406,41.0748047 40.7002734,40.6809375 40.7002734,40.1949609 C40.7002734,39.7091016 41.0941406,39.3151172 41.5801172,39.3151172 L42.7421484,39.3151172 Z M56.8680469,41.1064453 C57.2494922,41.4075 57.3144141,41.9608594 57.0132422,42.3423047 C56.8395703,42.5621484 56.5819922,42.6769922 56.3220703,42.6769922 C56.1310547,42.6769922 55.9391016,42.6152344 55.7773828,42.4876172 C55.5098437,42.2763281 55.2236719,42.0846094 54.9271875,41.9173828 C54.5037891,41.6790234 54.3540234,41.1423047 54.5925,40.7190234 C54.8310937,40.295625 55.3679297,40.1457422 55.7908594,40.3843359 C56.1666797,40.5958594 56.5290234,40.8389063 56.8680469,41.1064453 Z M53.6021484,54.9250781 C53.6687109,55.40625 53.3325,55.8505078 52.8509766,55.9170703 C52.4859375,55.9675781 52.1123437,55.9939453 51.7407422,55.9955859 L51.5721094,55.9964063 C51.0882422,55.9964063 50.6948437,55.6052344 50.6923828,55.1207813 C50.6900391,54.6350391 51.0820312,54.2391797 51.5680078,54.2367188 L51.7326562,54.2358984 C52.0269141,54.2347266 52.3219922,54.21375 52.6101562,54.1739063 C53.0905078,54.106875 53.5353516,54.4437891 53.6021484,54.9250781 Z M57.4851562,52.4508984 C57.8203125,52.8025781 57.8069531,53.3595703 57.4550391,53.6948438 C57.1425,53.9926172 56.8041797,54.2682422 56.4495703,54.5142188 C56.2966406,54.6201563 56.1220312,54.6710156 55.9490625,54.6710156 C55.6702734,54.6710156 55.3961719,54.5388281 55.2251953,54.2923828 C54.9485156,53.8928906 55.0477734,53.3446875 55.4470312,53.0678906 C55.7272266,52.8735938 55.9944141,52.6558594 56.2413281,52.4206641 C56.5928906,52.0853906 57.1498828,52.0988672 57.4851562,52.4508984 Z M59.1975,48.1778906 C59.6749219,48.2676563 59.9892187,48.7277344 59.8995703,49.2052734 C59.8195312,49.6300781 59.7055078,50.0516016 59.5605469,50.4582422 C59.4321094,50.8182422 59.0932031,51.0427734 58.7317969,51.0427734 C58.6337109,51.0427734 58.5338672,51.02625 58.43625,50.9914453 C57.9785156,50.8282031 57.7398047,50.3248828 57.9029297,49.8672656 C58.0171875,49.5466406 58.1069531,49.2144141 58.1701172,48.8796094 C58.2601172,48.4020703 58.7206641,48.0880078 59.1975,48.1778906 Z M59.7201562,45.3496875 C59.8541016,45.8166797 59.5842187,46.3039453 59.1172266,46.438125 C59.0361328,46.4613281 58.9545703,46.4724609 58.8740625,46.4724609 C58.4915625,46.4724609
58.1395312,46.2209766 58.0287891,45.8350781 C57.9349219,45.508125 57.8142187,45.185625 57.6700781,44.8768359 C57.4646484,44.4364453 57.6550781,43.9129688 58.0953516,43.7074219 C58.5360937,43.5021094 59.0592187,43.6924219 59.2647656,44.1328125 C59.4478125,44.5250391 59.6008594,44.9342578 59.7201562,45.3496875 Z M47.3905078,39.3151172 C47.8764844,39.3151172 48.2703516,39.7091016 48.2703516,40.1949609 C48.2703516,40.6810547 47.8764844,41.0748047 47.3905078,41.0748047 L46.2284766,41.0748047 C45.7423828,41.0748047 45.3486328,40.6809375 45.3486328,40.1949609 C45.3486328,39.7091016 45.7425,39.3151172 46.2284766,39.3151172 L47.3905078,39.3151172 Z M43.4376562,54.2735156 C43.9216406,54.2735156 44.3152734,54.6648047 44.3173828,55.149375 C44.3194922,55.6352344 43.9273828,56.0309766 43.4415234,56.0332031 L42.2753906,56.0384766 C41.7914062,56.0384766 41.3978906,55.6471875 41.3956641,55.1626172 C41.3935547,54.6767578 41.7856641,54.2808984 42.2715234,54.2787891 L43.4376562,54.2735156 Z M52.0775391,39.3235547 C52.5629297,39.345 52.9389844,39.7558594 52.9175391,40.2414844 C52.8967969,40.7136328 52.5072656,41.0823047 52.0393359,41.0823047 C52.0262109,41.0823047 52.0129687,41.0820703 51.9997266,41.0813672 C51.9014062,41.0770313 51.8025,41.0748047 51.7030078,41.0749219 L50.8767187,41.0749219 C50.390625,41.0749219 49.996875,40.6810547 49.996875,40.1950781 C49.996875,39.7092188 50.3907422,39.3152344 50.8767187,39.3152344 L51.7030078,39.3152344 C51.8269922,39.3152344 51.9530859,39.3179297 52.0775391,39.3235547 Z M48.0858984,54.2525391 C48.57,54.2525391 48.9635156,54.6437109 48.965625,55.1283984 C48.9677344,55.6142578 48.575625,56.01 48.0897656,56.0122266 L46.9236328,56.0175 C46.4396484,56.0175 46.0461328,55.6262109 46.0439062,55.1416406 C46.0417969,54.6557813 46.4339062,54.2599219 46.9197656,54.2578125 L48.0858984,54.2525391 Z" fill-rule="nonzero"></path>
                    </g>
                </g>
            </g>
        </g>
    </g>
</svg>