<?xml version="1.0" encoding="utf-8"?>
<svg width="24px" height="24px" version="1.1" xmlns:xlink="http://www.w3.org/1999/xlink" xmlns="http://www.w3.org/2000/svg">
    <g id="icon-24px-arrow">
        <g id="icon-24px-arrow">
            <path d="M0 0L24 0L24 24L0 24L0 0Z" transform="matrix(1 0 0 1 0 2.842171E-14)" id="Rectangle" fill="none" fill-rule="evenodd" stroke="none" />
            <g id="icon-arrow" transform="translate(6 10.105911)">
                <path d="M1.7125 0.2925L5.5925 4.1725L9.4725 0.2925C9.8625 -0.0975 10.4925 -0.0975 10.8825 0.2925C11.2725 0.6825 11.2725 1.3125 10.8825 1.7025L6.2925 6.2925C5.9025 6.6825 5.2725 6.6825 4.8825 6.2925L0.2925 1.7025C-0.0975 1.3125 -0.0975 0.6825 0.2925 0.2925C0.6825 -0.0875 1.3225 -0.0975 1.7125 0.2925Z" transform="translate(0.4075 -0.0025)" id="Path" fill="#FFFFFF" fill-rule="evenodd" stroke="none" />
            </g>
        </g>
    </g>
</svg>