<svg width="60px" height="61px" viewBox="0 0 60 61" version="1.1" xmlns="http://www.w3.org/2000/svg" xmlns:xlink="http://www.w3.org/1999/xlink">
    <g id="Symbols" stroke="none" stroke-width="1" fill="none" fill-rule="evenodd">
        <g id="experience" transform="translate(-80.000000, -48.000000)" fill="#FFFFFF" fill-rule="nonzero">
            <g id="icon-60px-maleta" transform="translate(80.000000, 48.000000)">
                <path d="M57.0678396,31.156628 C58.4792632,31.156628 59.6273763,32.3048589 59.6273763,33.7161647 L59.6273763,58.2145032 C59.6273763,59.6259267 58.4791455,60.7741576 57.0678396,60.7741576 L18.9661139,60.7741576 C17.5548081,60.7741576 16.4065772,59.6259267 16.4065772,58.2145032 L16.4065772,56.7006747 L6.47658713,56.7006747 L6.47658713,59.8884131 C6.47658713,60.3759552 6.08144505,60.7712149 5.59378533,60.7712149 C5.10612562,60.7712149 4.71098353,60.3759552 4.71098353,59.8884131 L4.71098353,56.7006747 L2.9159532,56.7006747 C1.30807686,56.7006747 -6.80448311e-13,55.3925978 -6.80448311e-13,53.7848392 L-6.80448311e-13,35.5606319 C-6.80448311e-13,35.0730899 0.395142086,34.6778301 0.882801801,34.6778301 C1.37046152,34.6778301 1.7656036,35.0730899 1.7656036,35.5606319 L1.7656036,53.7849569 C1.7656036,54.4191617 2.28163068,54.9351888 2.9159532,54.9351888 L26.9174509,54.9351888 C27.551538,54.9351888 28.0675651,54.4191617 28.0675651,53.7849569 L28.0675651,22.9551639 C28.0675651,22.3209591 27.5516557,21.804932 26.9174509,21.804932 L2.9159532,21.804932 C2.28163068,21.804932 1.7656036,22.3209591 1.7656036,22.9551639 L1.7656036,32.0294247 C1.7656036,32.5169667 1.37046152,32.9122265 0.882801801,32.9122265 C0.395142086,32.9122265 -6.82121026e-13,32.5169667 -6.82121026e-13,32.0294247 L-6.82121026e-13,22.9551639 C-6.82121026e-13,21.3474052 1.30819456,20.0393284 2.9159532,20.0393284 L7.54677833,20.0393284 L7.54677833,4.16137288 C7.54677833,3.19770644 8.33082404,2.41366073 9.29449048,2.41366073 L10.6568302,2.41366073 L10.6568302,2.01675304 C10.6568302,1.25895597 11.2734967,0.642289489 12.0312938,0.642289489 L18.8685349,0.642289489 C19.6264496,0.642289489 20.2431161,1.25895597 20.2432338,2.01675304 L20.2432338,2.41366073 L21.6055736,2.41366073 C22.5693577,2.41366073 23.3532857,3.19770644 23.3532857,4.16137288 L23.3532857,20.0393284 L26.9175686,20.0393284 C28.5253272,20.0393284 29.8332864,21.3474052 29.8332864,22.9551639 L29.8332864,31.156628 L31.4702363,31.156628 L31.4702363,28.9531547 C31.4702363,28.1287355 32.1409303,27.4579239 32.9654672,27.4579239 L43.0686041,27.4579239 C43.893141,27.4579239 44.5638349,28.1287355 44.5638349,28.9531547 L44.5638349,31.156628 L57.0678396,31.156628 Z M12.4224338,2.40789309 L12.4224338,4.18503197 L18.4773948,4.18503197 L18.4773948,2.40789309 L12.4224338,2.40789309 Z M9.31238193,4.17926433 L9.31238193,20.0393284 L21.5875644,20.0393284 L21.5875644,4.17926433 L20.2431161,4.17926433 L20.2431161,4.57617202 C20.2431161,5.3340868 19.6264496,5.95063557 18.8685349,5.95063557 L12.0312938,5.95063557 C11.273379,5.95063557 10.6568302,5.3340868 10.6568302,4.57617202 L10.6568302,4.17926433 L9.31238193,4.17926433 Z M50.6963648,32.9222316 L48.9299372,32.9222316 L48.9299372,58.8835493 L50.6963648,58.8835493 L50.6963648,32.9222316 Z M29.8331687,53.7849569 C29.8331687,55.3927155 28.5252095,56.7007924 26.9174509,56.7006747 L25.1224205,56.7006747 L25.1224205,59.008554 L47.1643336,59.008554 L47.1643336,32.9222316 L41.548184,32.9222316 C41.0605243,32.9222316 40.6653822,32.5269718 40.6653822,32.0394298 C40.6653822,31.5518878 41.0605243,31.156628 41.548184,31.156628 L42.7981136,31.156628 L42.7981136,29.2235275 L33.2357222,29.2235275 L33.2357222,31.156628 L38.0169768,31.156628 C38.5046365,31.156628 38.8997786,31.5518878 38.8997786,32.0394298 C38.8997786,32.5269718 38.5046365,32.9222316 38.0169768,32.9222316 L29.8331687,32.9222316 L29.8331687,53.7849569 Z M18.1721808,58.2146209 C18.1721808,58.6523729 18.5282442,59.0086717 18.9661139,59.0086717 L23.3568169,59.0086717 L23.3568169,56.7007924 L18.1721808,56.7007924 L18.1721808,58.2146209 Z M57.8617727,58.2146209 L57.8617727,33.7162824 C57.8617727,33.2784127
57.5057093,32.9222316 57.0678396,32.9222316 L52.4619684,32.9222316 L52.4619684,59.0086717 L57.0678396,59.0086717 C57.5057093,59.0086717 57.8617727,58.6524906 57.8617727,58.2146209 Z M33.8691031,52.4374482 C32.7778423,52.4374482 31.8899791,51.549585 31.8899791,50.4582066 L31.8899791,47.8893711 C31.8899791,46.7979926 32.7778423,45.9101294 33.8691031,45.9101294 L40.3920667,45.9101294 C41.4834452,45.9101294 42.3713084,46.7979926 42.3713084,47.8893711 L42.3713084,50.4582066 C42.3713084,51.549585 41.4834452,52.4374482 40.3920667,52.4374482 L33.8691031,52.4374482 Z M33.6555828,47.8893711 L33.6555828,50.4582066 C33.6555828,50.5760312 33.7513962,50.6718446 33.8691031,50.6718446 L40.3920667,50.6718446 C40.5098913,50.6718446 40.6057048,50.5760312 40.6057048,50.4582066 L40.6057048,47.8893711 C40.6057048,47.7715465 40.5098913,47.675733 40.3920667,47.675733 L33.8691031,47.675733 C33.7513962,47.675733 33.6555828,47.7715465 33.6555828,47.8893711 Z M7.48851341,50.3812263 C7.48851341,50.8687683 7.09337133,51.2640281 6.60571161,51.2641458 C6.1180519,51.2641458 5.72290981,50.868886 5.72290981,50.381344 L5.72290981,26.3588945 C5.72290981,25.8713525 6.1180519,25.4760927 6.60571161,25.4760927 C7.09337133,25.4760927 7.48851341,25.8713525 7.48851341,26.3588945 L7.48851341,50.3812263 Z M13.0292129,50.3812263 C13.0292129,50.8687683 12.6339531,51.2640281 12.1464111,51.2641458 C11.6587514,51.2641458 11.2636093,50.868886 11.2636093,50.381344 L11.2636093,26.3588945 C11.2636093,25.8713525 11.6587514,25.4760927 12.1464111,25.4760927 C12.6340708,25.4760927 13.0292129,25.8713525 13.0292129,26.3588945 L13.0292129,50.3812263 Z M18.5697947,50.3812263 C18.5697947,50.8687683 18.1746527,51.2641458 17.6869929,51.2641458 C17.1993332,51.2641458 16.8041911,50.868886 16.8041911,50.381344 L16.8041911,26.3588945 C16.8041911,25.8713525 17.1993332,25.4760927 17.6869929,25.4760927 C18.1746527,25.4760927 18.5697947,25.8713525 18.5697947,26.3588945 L18.5697947,50.3812263 Z M24.1103766,50.3812263 C24.1103766,50.8687683 23.7152345,51.2640281 23.2275748,51.2641458 C22.739915,51.2641458 22.344773,50.868886 22.344773,50.381344 L22.344773,26.3588945 C22.344773,25.8713525 22.739915,25.4760927 23.2275748,25.4760927 C23.7152345,25.4760927 24.1103766,25.8713525 24.1103766,26.3588945 L24.1103766,50.3812263 Z" id="Combined-Shape"></path>
            </g>
        </g>
    </g>
</svg>