<svg width="60px" height="61px" viewBox="0 0 60 61" version="1.1" xmlns="http://www.w3.org/2000/svg" xmlns:xlink="http://www.w3.org/1999/xlink">
    <g id="Symbols" stroke="none" stroke-width="1" fill="none" fill-rule="evenodd">
        <g id="jewish" transform="translate(-80.000000, -48.000000)" fill="#FFFFFF" fill-rule="nonzero">
            <g id="icon-60px-sinagoga" transform="translate(80.000000, 48.800000)">
                <path d="M53.0692969,6.42316406 C56.9640234,6.86707031 60,10.1811328 59.9998828,14.1925781 L59.9998828,59.1089063 C59.9998828,59.6009766 59.6008594,60 59.1087891,60 L45.2477344,60 L38.1805078,60 L31.9477734,60 L28.0522266,60 L21.8194922,60 L14.7522656,60 L0.89109375,60 C0.399023438,60 3.76096977e-12,59.6009766 3.76096977e-12,59.1089063 L3.76096977e-12,14.1925781 C3.76096977e-12,10.1811328 3.03597656,6.86707031 6.93070313,6.42316406 L6.93070313,0.89109375 C6.93070313,0.399023437 7.32972656,0 7.82179688,0 C8.31386719,0 8.71277344,0.399023437 8.71277344,0.89109375 L8.71277344,6.42316406 C12.6073828,6.86707031 15.6433594,10.1811328 15.6433594,14.1925781 L15.6433594,22.6830469 L29.1087891,14.59875 L29.1087891,6.19265625 C29.1087891,5.70058594 29.5078125,5.3015625 29.9998828,5.3015625 C30.4919531,5.3015625 30.8909766,5.70058594 30.8909766,6.19265625 L30.8909766,14.59875 L44.3565234,22.6832813 L44.3565234,14.1925781 C44.3565234,10.1811328 47.3926172,6.86707031 51.2871094,6.42316406 L51.2871094,0.89109375 C51.2871094,0.399023437 51.6861328,0 52.1782031,0 C52.6702734,0 53.0692969,0.399023438 53.0692969,0.89109375 L53.0692969,6.42316406 Z M13.8611719,58.2178125 L13.8611719,34.1716406 L11.9117578,34.1716406 L6.2090625,34.1716406 L1.7821875,34.1716406 L1.7821875,58.2178125 L13.8611719,58.2178125 Z M7.10015625,32.3894531 L11.0207813,32.3894531 L11.0207813,24.7265625 C11.0207813,23.645625 10.1412891,22.76625 9.06046875,22.76625 C7.97953125,22.76625 7.10015625,23.6457422 7.10015625,24.7265625 L7.10015625,32.3894531 Z M13.8611719,24.2574609 L13.8611719,18.845625 L1.7821875,18.845625 L1.7821875,32.3894531 L5.31796875,32.3894531 L5.31796875,24.7265625 C5.31796875,22.6628906 6.99679688,20.9840625 9.06046875,20.9840625 C11.1240234,20.9840625 12.8029688,22.6628906 12.8029688,24.7264453 L12.8029688,32.3893359 L13.8611719,32.3894531 L13.8611719,24.2574609 Z M13.8612891,17.0635547 L13.8612891,15.0837891 L12.1195313,15.0837891 C11.6274609,15.0837891 11.2284375,14.6847656 11.2284375,14.1926953 C11.2284375,13.700625 11.6274609,13.3016016 12.1195313,13.3016016 L13.7950781,13.3016016 C13.3628906,10.3923047 10.8492188,8.15308594 7.82179688,8.15308594 C4.794375,8.15308594 2.28058594,10.3924219 1.84839844,13.3016016 L7.96089844,13.3016016 C8.45296875,13.3016016 8.85199219,13.700625 8.85199219,14.1926953 C8.85199219,14.6847656 8.45296875,15.0837891 7.96089844,15.0837891 L1.7821875,15.0837891 L1.7821875,17.0635547 L13.8612891,17.0635547 Z M27.1611328,58.2178125 L27.16125,58.2178125 L27.16125,46.2669141 C27.16125,45.0398437 26.1630469,44.0416406 24.9359766,44.0416406 C23.7089063,44.0416406 22.7107031,45.0399609 22.7107031,46.2669141 L22.7107031,58.2178125 L27.1611328,58.2178125 Z M44.3566406,58.2178125 L44.3566406,24.7618359 L30,16.1424609 L15.6433594,24.7618359 L15.6433594,58.2178125 L20.9285156,58.2176953 L20.9285156,46.2669141 C20.9285156,44.0801953 22.6886719,42.2969531 24.8666016,42.2599219 C27.1085156,42.2217188 28.9434375,44.1043359 28.9434375,46.3466016 L28.9434375,58.2176953 L31.0567969,58.2176953 L31.0567969,46.2669141 C31.0567969,44.0801953 32.8169531,42.2969531 34.9948828,42.2599219 C37.2367969,42.2217188 39.0717188,44.1043359 39.0717188,46.3466016 L39.0717188,47.5564453 C39.0717188,48.0485156 38.6726953,48.4475391 38.180625,48.4475391 C37.6885547,48.4475391 37.2895313,48.0485156 37.2895313,47.5564453 L37.2895313,46.2667969 C37.2895313,45.0113672 36.2443359,43.9952344 34.9783594,44.0431641 C33.7741406,44.08875 32.8388672,45.1163672 32.8388672,46.3215234 L32.8388672,58.2178125 L37.2892969,58.2178125 L37.2892969,51.7150781 C37.2892969,51.2230078 37.6883203,50.8239844 38.1803906,50.8239844 C38.6724609,50.8239844

39.0714844,51.2230078 39.0714844,51.7150781 L39.0714844,58.2178125 L44.3566406,58.2178125 Z M52.1783203,8.15308594 C49.1508984,8.15308594 46.6372266,10.3923047 46.2051563,13.3016016 L58.1516016,13.3016016 C57.7194141,10.3923047 55.2057422,8.15308594 52.1783203,8.15308594 Z M58.2178125,58.2178125 L58.2178125,34.1716406 L53.7908203,34.1716406 L48.088125,34.1716406 L46.1388281,34.1716406 L46.1388281,58.2178125 L58.2178125,58.2178125 Z M48.9792188,32.3894531 L52.8998438,32.3894531 L52.8998438,24.7265625 C52.8998438,23.645625 52.0204688,22.76625 50.9395313,22.76625 C49.8585938,22.76625 48.9792188,23.6457422 48.9792188,24.7265625 L48.9792188,32.3894531 Z M58.2178125,32.3894531 L58.2178125,18.8457422 L46.1388281,18.8457422 L46.1388281,24.2575781 L46.1388281,32.3894531 L47.1970313,32.3894531 L47.1970313,24.7265625 C47.1970313,22.6628906 48.8759766,20.9840625 50.9395313,20.9840625 C53.0032031,20.9840625 54.6820313,22.6628906 54.6820313,24.7265625 L54.6820313,32.3894531 L58.2178125,32.3894531 Z M58.2178125,17.0634375 L58.2178125,15.0836719 L46.1388281,15.0836719 L46.1388281,17.0634375 L58.2178125,17.0634375 Z M9.06046875,39.3396094 C11.1240234,39.3396094 12.8029688,41.0183203 12.8028516,43.0821094 L12.8028516,51.6362109 C12.8028516,52.1282813 12.4038281,52.5273047 11.9117578,52.5273047 L6.2090625,52.5273047 C5.71699219,52.5273047 5.31796875,52.1282813 5.31796875,51.6362109 L5.31796875,43.0821094 C5.31796875,41.0184375 6.99679688,39.3396094 9.06046875,39.3396094 Z M11.0207813,50.7448828 L11.0207813,43.081875 C11.0207813,42.0009375 10.1412891,41.1215625 9.06046875,41.1215625 C7.97953125,41.1215625 7.10015625,42.0010547 7.10015625,43.081875 L7.10015625,50.7448828 L11.0207813,50.7448828 Z M50.9395313,39.3396094 C53.0032031,39.3396094 54.6820313,41.0183203 54.6819141,43.0821094 L54.6819141,51.6362109 C54.6819141,52.1282813 54.2828906,52.5273047 53.7908203,52.5273047 L48.088125,52.5273047 C47.5960547,52.5273047 47.1970313,52.1282813 47.1970313,51.6362109 L47.1970313,43.0821094 C47.1970313,41.0184375 48.8759766,39.3396094 50.9395313,39.3396094 Z M52.8998438,50.7448828 L52.8999609,50.7448828 L52.8999609,43.081875 C52.8999609,42.0009375 52.0205859,41.1215625 50.9396484,41.1215625 C49.8587109,41.1215625 48.9793359,42.0010547 48.9793359,43.081875 L48.9793359,50.7448828 L52.8998438,50.7448828 Z M38.9179688,35.0819531 C39.0772266,35.3576953 39.0772266,35.6973047 38.9179688,35.9730469 C38.7587109,36.2487891 38.4646875,36.4185938 38.1462891,36.4185938 L33.2298047,36.4185938 L30.7715625,40.67625 C30.6123047,40.9519922 30.3182813,41.1217969 29.9998828,41.1217969 C29.6814844,41.1217969 29.3874609,40.9519922 29.2282031,40.67625 L26.7699609,36.4185938 L21.8535938,36.4185938 C21.5351953,36.4185938 21.2411719,36.2487891 21.0819141,35.9730469 C20.9226563,35.6973047 20.9226563,35.3576953 21.0819141,35.0819531 L23.5401563,30.8241797 L21.0819141,26.5664063 C20.9226563,26.2906641 20.9226563,25.9510547 21.0819141,25.6753125 C21.2411719,25.3995703 21.5351953,25.2297656 21.8535938,25.2297656 L26.7699609,25.2297656 L29.2282031,20.9721094 C29.3874609,20.6963672 29.6814844,20.5265625 29.9998828,20.5265625 C30.3182813,20.5265625 30.6123047,20.6963672 30.7715625,20.9721094 L33.2298047,25.2297656 L38.1462891,25.2297656 C38.4646875,25.2297656 38.7587109,25.3995703 38.9179688,25.6753125 C39.0771094,25.9510547 39.0771094,26.2907813 38.9179688,26.5664063 L36.4597266,30.8241797 L38.9179688,35.0819531 Z M36.6028125,27.0119531 L34.2587109,27.0119531 L35.4308203,29.0419922 L36.6028125,27.0119531 Z M30,23.1999609 L28.8280078,25.2298828 L31.1719922,25.2298828 L30,23.1999609 Z M23.3971875,27.0119531 L24.5692969,29.0419922 L25.7412891,27.0119531 L23.3971875,27.0119531 Z M23.3971875,34.6362891 L25.7411719,34.6362891 L24.5691797,32.60625 L23.3971875,34.6362891 Z M30,38.4485156 L31.1721094,36.4185938 L28.8280078,36.4185938 L30,38.4485156 Z M32.2010156,34.6364063 L34.4020313,30.8241797 L32.2010156,27.0119531 L27.7991016,27.0119531 L25.5980859,30.8241797 L27.7991016,34.6364063 L32.2010156,34.6364063 Z M34.2588281,34.6362891 L36.6029297,34.6362891 L35.4309375,32.60625

L34.2588281,34.6362891 Z" id="Combined-Shape"></path>
            </g>
        </g>
    </g>
</svg>