<svg xmlns="http://www.w3.org/2000/svg" width="46" height="30" viewBox="0 0 46 30">
    <g fill="none" fill-rule="evenodd">
        <g fill="#63a76d" fill-rule="nonzero">
            <g>
                <g transform="translate(-697 -2651) translate(0 2601.91) translate(697 49.992)">
                    <path d="M11.338 20.868c1.625 0 3.09-.979 3.713-2.48.622-1.502.278-3.23-.871-4.38-1.15-1.149-2.878-1.493-4.38-.87-1.501.622-2.48 2.087-2.48 3.712 0 2.22 1.799 4.018 4.018 4.018z"/>
                    <circle cx="33.991" cy="16.85" r="4.018"/>
                    <path d="M.012 16.85c0 6.256 5.07 11.327 11.326 11.327 2.855.004 5.606-1.075 7.698-3.02l3.63 3.951 3.631-3.948c2.091 1.942 4.841 3.02 7.695 3.016 6.256 0 11.332-5.071 11.332-11.326.003-3.187-1.34-6.227-3.697-8.37l3.706-4.033h-8.216c-8.713-5.93-20.165-5.93-28.878 0H0l3.706 4.032C1.35 10.624.008 13.664.012 16.85zm41.644 0c0 4.234-3.432 7.666-7.665 7.666-4.234 0-7.666-3.432-7.666-7.666 0-4.233 3.432-7.665 7.666-7.665 4.233 0 7.665 3.432 7.665 7.665zM22.665 3.706c2.921-.004 5.814.574 8.51 1.701-4.838 1.851-8.506 6.179-8.506 11.222 0-5.044-3.67-9.372-8.508-11.223 2.693-1.125 5.584-1.704 8.504-1.7zm-11.327 5.48c4.233 0 7.665 3.431 7.665 7.664 0 4.234-3.432 7.666-7.665 7.666-4.234 0-7.665-3.432-7.665-7.666 0-4.233 3.431-7.665 7.665-7.665z"/>
                </g>
            </g>
        </g>
    </g>
</svg>
