<?xml version="1.0" encoding="utf-8"?>
<svg width="195px" height="196px" version="1.1" xmlns:xlink="http://www.w3.org/1999/xlink" xmlns="http://www.w3.org/2000/svg">
    <defs>
        <path d="M0 0L125.742 0L125.742 125.743L0 125.743L0 0Z" transform="translate(6.116446E-05 0.2557286)" id="path_1" />
        <clipPath id="mask_1">
            <use xlink:href="#path_1" />
        </clipPath>
    </defs>
    <g id="logo-lunfarda-blanco" transform="matrix(0.94551855 -0.32556814 0.32556814 0.94551855 0 49.746094)">
        <g id="logo-lunfarda-blanco" transform="matrix(0.97437006 -0.22495104 0.22495104 0.97437006 0.5091133 29.0769)" opacity="0.82321894">
            <path d="M58.3625 116.107C26.5221 116.107 0.618373 90.2029 0.618373 58.3631C0.618373 26.5215 26.5221 0.618373 58.3625 0.618373C90.2029 0.618373 116.107 26.5215 116.107 58.3631C116.107 90.2029 90.2029 116.107 58.3625 116.107M58.3625 0C26.1808 0 0 26.1821 0 58.3631C0 90.5442 26.1808 116.725 58.3625 116.725C90.5442 116.725 116.724 90.5442 116.724 58.3631C116.724 26.1821 90.5442 0 58.3625 0" transform="translate(4.509105 5.120444)" id="Fill-1" fill="#FFFFFF" fill-rule="evenodd" stroke="none" />
            <path d="M76.3247 38.4712C76.3247 59.3436 59.3442 76.3241 38.4718 76.3241C17.5995 76.3241 0.618373 59.3436 0.618373 38.4712C0.618373 17.5989 17.5995 0.617761 38.4718 0.617761C59.3442 0.617761 76.3247 17.5989 76.3247 38.4712M0 38.4712C0 59.6843 17.2582 76.9418 38.4718 76.9418C59.6849 76.9418 76.9431 59.6843 76.9431 38.4712C76.9431 17.2582 59.6849 0 38.4718 0C17.2582 0 0 17.2582 0 38.4712" transform="translate(24.39991 25.01223)" id="Fill-3" fill="#FFFFFF" fill-rule="evenodd" stroke="none" />
            <g id="Group-7" transform="translate(0 0.35597718)">
                <path d="M0 0L125.742 0L125.742 125.743L0 125.743L0 0Z" transform="translate(6.116446E-05 0.2557286)" id="Clip-6" fill="none" fill-rule="evenodd" stroke="none" />
                <g clip-path="url(#mask_1)">
                    <path d="M62.8716 124.197C29.0017 124.197 1.54501 96.7408 1.54501 62.8716C1.54501 29.0017 29.0017 1.54563 62.8716 1.54563C96.7408 1.54563 124.197 29.0017 124.197 62.8716C124.197 96.7408 96.7408 124.197 62.8716 124.197M62.8716 0C28.2042 0 0 28.2042 0 62.8716C0 97.539 28.2042 125.743 62.8716 125.743C97.5384 125.743 125.743 97.539 125.743 62.8716C125.743 28.2042 97.5384 0 62.8716 0" transform="translate(6.116446E-05 0.2557286)" id="Fill-5" fill="#FFFFFF" fill-rule="evenodd" stroke="none" />
                </g>
            </g>
            <path d="M34.8327 1.54501C48.7293 1.54501 61.2851 10.3148 66.0761 23.3667C69.1393 31.7107 68.7698 40.7496 65.0351 48.8166C61.3004 56.8823 54.6476 63.0122 46.3023 66.0754C42.6006 67.4344 38.7436 68.1231 34.8382 68.1231C20.9404 68.1231 8.384 59.354 3.59298 46.3021C0.529868 37.9568 0.899912 28.9192 4.63461 20.8516C8.36932 12.7858 15.0216 6.65531 23.3668 3.59341C27.0679 2.23373 30.9255 1.54501 34.8321 1.54501L34.8327 1.54501ZM22.8341 2.14259C4.77896 8.76976 -4.48501 28.7791 2.14216 46.8349C7.31729 60.9314 20.6481 69.6682 34.8382 69.6682C38.8225 69.6682 42.8771 68.9788 46.835 67.5256C64.8902 60.8984 74.1541 40.8891 67.527 22.8333C62.3525 8.73734 49.0217 -0.00122329 34.8315 0C30.846 0 26.7927 0.689324 22.8341 2.14259L22.8341 2.14259Z" transform="translate(28.03681 28.649252)" id="Fill-8" fill="#FFFFFF" fill-rule="evenodd" stroke="none" />
            <path d="M2.59595 0.877053C2.34089 0.183448 1.57144 -0.172529 0.877835 0.0825265C0.18423 0.336971 -0.172971 1.10581 0.0826965 1.80002C0.337141 2.49485 1.10598 2.85083 1.8002 2.59516C2.49441 2.34072 2.85039 1.57188 2.59595 0.877053" transform="translate(109.732285 60.25481)" id="Fill-10" fill="#FFFFFF" fill-rule="evenodd" stroke="none" />
            <path d="M0.877949 0.0822059C0.183732 0.337262 -0.172245 1.1061 0.0821994 1.80032C0.337255 2.49392 1.1067 2.85112 1.80092 2.59484C2.49452 2.3404 2.8505 1.57156 2.59606 0.877344C2.341 0.183739 1.57217 -0.172238 0.877949 0.0822059" transform="translate(13.332391 60.25464)" id="Fill-12" fill="#FFFFFF" fill-rule="evenodd" stroke="none" />
            <path d="M2.20926 3.28025C1.9328 3.42276 1.71077 3.33041 1.54196 3.00379L1.35173 2.63435L2.16583 2.21354L2.34566 2.56096C2.43068 2.72732 2.46309 2.87228 2.43863 2.99522C2.41416 3.11817 2.33771 3.21419 2.20926 3.28025L2.20926 3.28025ZM3.62766 1.45816L3.77996 1.75236C3.95061 2.08265 3.92676 2.30223 3.7084 2.416C3.5873 2.47777 3.47292 2.4845 3.36894 2.43496C3.26496 2.38419 3.17444 2.28388 3.09553 2.13342L2.93284 1.81781L3.62766 1.45816ZM3.17505 3.94511C3.26679 3.75978 3.28331 3.53103 3.22337 3.25762L3.24967 3.24355C3.3879 3.40319 3.56283 3.49922 3.77446 3.53041C3.9867 3.56283 4.19955 3.52246 4.41791 3.41053C4.74881 3.23988 4.9268 2.98605 4.95065 2.64965C4.97512 2.31324 4.85095 1.88081 4.57938 1.35418L3.88027 0L0 2.00436L0.779847 3.51512C1.01594 3.9708 1.30403 4.27907 1.64227 4.43993C1.98173 4.59896 2.32731 4.58795 2.67962 4.40568C2.91632 4.28396 3.08147 4.12983 3.17505 3.94511L3.17505 3.94511Z" transform="translate(16.991304 83.36447)" id="Fill-14" fill="#FFFFFF" fill-rule="evenodd" stroke="none" />
            <path d="M2.3135 1.06526C2.43583 1.09829 2.5337 1.17352 2.60648 1.28912C2.68538 1.41512 2.7074 1.54173 2.67132 1.67018C2.63584 1.79679 2.5496 1.90444 2.41259 1.99496L1.88168 1.14355C2.04683 1.05792 2.19118 1.03284 2.3135 1.06526M1.47249 2.9112C1.34833 2.78521 1.23151 2.63535 1.12324 2.46165C1.00397 2.2702 0.955653 2.09099 0.977673 1.92401C1.0003 1.75581 1.08899 1.61941 1.24557 1.51176L2.35143 3.2837L2.7912 3.00846C3.21629 2.74361 3.46707 2.4225 3.54536 2.04634C3.62487 1.67018 3.52823 1.26527 3.25788 0.832834C2.97469 0.378994 2.62667 0.10987 2.21442 0.0266861C1.80278 -0.055886 1.35383 0.0529869 0.869411 0.355751C0.399668 0.648729 0.119535 1.00715 0.0308466 1.43041C-0.0584535 1.85367 0.0461377 2.30384 0.34462 2.78215C0.487745 3.01151 0.626588 3.1999 0.760539 3.34608C0.894489 3.49349 1.04923 3.61949 1.22539 3.7253L1.93795 3.28064C1.75201 3.16014 1.59666 3.03659 1.47249 2.9112" transform="translate(19.451626 87.75368)" id="Fill-16" fill="#FFFFFF" fill-rule="evenodd" stroke="none" />
            <path d="M2.30162 3.16499C2.44841 3.05795 2.55667 2.94479 2.62579 2.82613C2.69613 2.70748 2.73405 2.57291 2.74139 2.42367C2.74812 2.27504 2.72121 2.07504 2.65943 1.82671C2.5738 1.49581 2.5267 1.29091 2.51998 1.21323C2.51447 1.13494 2.53466 1.07867 2.58114 1.04442C2.65637 0.988756 2.75057 1.03891 2.86372 1.19366C2.92794 1.28235 2.99155 1.41079 3.05455 1.57899C3.11694 1.74781 3.16648 1.9154 3.20196 2.08176L3.99649 1.89338C3.94694 1.66768 3.88456 1.46156 3.80871 1.27378C3.73287 1.08784 3.62828 0.903738 3.49738 0.723915C3.23499 0.365491 2.96158 0.139183 2.67656 0.0462131C2.39214 -0.0461451 2.1218 -0.000271842 1.86857 0.185668C1.66734 0.332462 1.53767 0.503111 1.47896 0.699449C1.42146 0.893952 1.43186 1.15451 1.51199 1.48052C1.60434 1.83588 1.65144 2.05546 1.65572 2.14048C1.65939 2.22489 1.63737 2.28483 1.58905 2.31969C1.49608 2.3882 1.37437 2.32031 1.22512 2.11663C1.12604 1.97962 1.03246 1.80836 0.947438 1.60407C0.861807 1.39856 0.797585 1.19916 0.755993 1.00649L0 1.55697C0.0556597 1.75515 0.127222 1.93803 0.214687 2.10317C0.303376 2.26832 0.420812 2.45303 0.56883 2.65549C0.841012 3.02798 1.12543 3.25979 1.42024 3.35031C1.71444 3.43961 2.00864 3.37906 2.30162 3.16499" transform="translate(21.204924 90.799774)" id="Fill-18" fill="#FFFFFF" fill-rule="evenodd" stroke="none" />
            <path d="M4.18059 2.18418C4.1286 2.31752 3.99098 2.479 3.76957 2.66677C3.54387 2.85944 3.35976 2.97015 3.21847 3.00195C3.07657 3.03376 2.9573 2.99339 2.86005 2.87901C2.7524 2.75179 2.72243 2.61601 2.77014 2.47349C2.81846 2.32976 2.95424 2.16522 3.17566 1.97623L3.246 1.9169C3.43316 1.7646 3.59586 1.67591 3.73409 1.649C3.87171 1.62208 3.99587 1.67346 4.10719 1.80435C4.20811 1.92362 4.23319 2.05023 4.18059 2.18418M5.29807 2.50775C5.39654 2.14565 5.32498 1.82026 5.08216 1.53462C4.83444 1.24409 4.51577 1.12176 4.12615 1.16763L4.09129 1.12665L4.31332 0.722965L3.698 0L0 3.14324L0.755993 4.03258L1.79151 3.15303C1.83616 3.11511 1.93647 3.00624 2.09366 2.82519L2.12852 2.86617C2.10345 3.06373 2.11201 3.23193 2.15666 3.372C2.20009 3.51207 2.27899 3.64663 2.38908 3.77752C2.63619 4.06744 2.94996 4.19527 3.33346 4.16102C3.71635 4.12799 4.11576 3.93349 4.53106 3.58057C4.94392 3.22949 5.19959 2.87229 5.29807 2.50775" transform="translate(22.052723 93.03671)" id="Fill-20" fill="#FFFFFF" fill-rule="evenodd" stroke="none" />
            <path d="M2.51669 1.59898C2.46592 1.75679 2.33809 1.93784 2.13441 2.14151C1.9289 2.34764 1.7454 2.47792 1.58515 2.53235C1.42429 2.58801 1.28055 2.55131 1.15211 2.42226C1.02244 2.2932 0.984519 2.14702 1.03651 1.98493C1.08972 1.82101 1.21939 1.63691 1.42429 1.43139C1.63042 1.22649 1.81207 1.09927 1.96988 1.05034C2.12891 1.00141 2.27142 1.04116 2.39864 1.16839C2.5277 1.29744 2.56745 1.44057 2.51669 1.59898M3.48247 2.18127C3.57055 1.89686 3.57483 1.61489 3.4941 1.33414C3.41397 1.05401 3.25617 0.796506 3.02191 0.561023C2.64085 0.181803 2.23778 -0.00597173 1.81085 0.00014472C1.38331 0.00564952 0.975344 0.203211 0.585726 0.59344C0.204672 0.975106 0.0089456 1.38491 0.000382581 1.82407C-0.00940373 2.26201 0.168585 2.66386 0.53129 3.02717C0.91051 3.40578 1.31358 3.5905 1.74418 3.58255C2.17356 3.57337 2.58336 3.37337 2.97481 2.98252C3.22436 2.73297 3.39256 2.46568 3.48247 2.18127" transform="translate(26.408047 96.46631)" id="Fill-22" fill="#FFFFFF" fill-rule="evenodd" stroke="none" />
            <path d="M3.90657 2.42089L2.70959 2.65882C2.553 2.69001 2.3481 2.74506 2.09427 2.82519L2.07592 2.81051C2.30223 2.61172 2.51753 2.39153 2.71937 2.1536L3.90229 0.759051L3.00684 0L0 3.54387L0.895448 4.30353L1.49241 3.59953L1.9695 3.624L1.7493 5.02833L2.76769 5.89137L3.07351 3.60137L4.89927 3.26313L3.90657 2.42089Z" transform="translate(28.818554 97.69016)" id="Fill-24" fill="#FFFFFF" fill-rule="evenodd" stroke="none" />
            <path d="M2.44052 1.7687L1.62581 1.18335C1.7463 1.04268 1.86985 0.963773 1.99524 0.947259C2.12124 0.931356 2.2399 0.963161 2.35122 1.04268C2.47232 1.13014 2.54083 1.23901 2.55612 1.3699C2.57019 1.5008 2.53227 1.63291 2.44052 1.7687M2.7812 0.372925C2.34571 0.0603743 1.92123 -0.0552265 1.50898 0.0242873C1.09612 0.103801 0.722409 0.376594 0.389062 0.840833C0.0667254 1.291 -0.0549919 1.72833 0.022687 2.15342C0.101589 2.57851 0.368878 2.95468 0.827611 3.28374C1.04719 3.44154 1.24659 3.56265 1.42641 3.64767C1.60562 3.73269 1.79707 3.79018 2.00075 3.82015L2.49006 3.13878C2.27232 3.0978 2.08209 3.04275 1.9194 2.97364C1.7567 2.90452 1.59156 2.81094 1.42519 2.69045C1.24292 2.56016 1.12915 2.41276 1.08695 2.24884C1.04291 2.08614 1.07349 1.92528 1.17747 1.76625L2.87356 2.98465L3.17694 2.562C3.46869 2.15587 3.57818 1.7638 3.50723 1.3852C3.43689 1.00781 3.19468 0.670184 2.7812 0.372925" transform="translate(32.548733 101.66164)" id="Fill-26" fill="#FFFFFF" fill-rule="evenodd" stroke="none" />
            <path d="M3.31695 2.10528C3.25028 2.22577 3.15976 2.29428 3.04477 2.30957C2.92978 2.32547 2.79889 2.29305 2.65026 2.20987L2.33954 2.038L2.7206 1.35357L3.0099 1.51443C3.33408 1.69425 3.43561 1.8912 3.31695 2.10528M2.5475 3.65702C2.3952 3.92737 2.15911 3.97447 1.83738 3.79525L1.47468 3.59341L1.91995 2.79154L2.26247 2.98238C2.4264 3.0729 2.53221 3.17627 2.57992 3.29187C2.62885 3.40808 2.61784 3.5298 2.5475 3.65702M3.98915 2.99889C4.18304 2.90837 4.34023 2.75668 4.45828 2.54199C4.63933 2.21721 4.64667 1.90772 4.48152 1.61352C4.31577 1.31993 3.97324 1.02879 3.45518 0.74009L2.12363 0L0 3.81666L1.48569 4.64177C1.93586 4.89254 2.34505 4.98918 2.7157 4.93475C3.08636 4.8797 3.36894 4.6803 3.56161 4.3335C3.69067 4.10108 3.74327 3.8815 3.7188 3.67598C3.69433 3.46986 3.58057 3.27107 3.37873 3.07657L3.39341 3.05088C3.59708 3.10654 3.79526 3.08942 3.98915 2.99889" transform="translate(36.813362 103.33681)" id="Fill-28" fill="#FFFFFF" fill-rule="evenodd" stroke="none" />
            <path d="M2.99524 0.871594L2.38849 2.22455C2.23497 2.56707 2.08573 2.79399 1.94321 2.90348C1.79948 3.01235 1.63678 3.02581 1.45328 2.94446C1.32178 2.88574 1.25205 2.79032 1.24104 2.66188C1.23065 2.53343 1.2704 2.36768 1.36031 2.16522L2.11753 0.478306L1.05082 0L0.149258 2.01231C-0.0122161 2.37196 -0.0427983 2.69246 0.0581231 2.97443C0.158433 3.25579 0.379237 3.47353 0.718699 3.62583C0.933387 3.72186 1.13645 3.76834 1.32912 3.76406C1.52179 3.75978 1.69488 3.70718 1.8478 3.60503L1.91018 3.63317L1.87226 4.07722L2.67535 4.4381L4.06073 1.3499L2.99524 0.871594Z" transform="translate(40.900784 106.10138)" id="Fill-30" fill="#FFFFFF" fill-rule="evenodd" stroke="none" />
            <path d="M2.36348 1.56424L1.41726 1.22967C1.49372 1.06086 1.59036 0.950764 1.70657 0.899997C1.82278 0.848619 1.94572 0.846173 2.07478 0.892046C2.21668 0.940978 2.31149 1.02722 2.36287 1.14894C2.41363 1.27065 2.41424 1.40889 2.36348 1.56424M2.30048 0.129325C1.79526 -0.0498872 1.3561 -0.0425474 0.981161 0.149509C0.607446 0.340954 0.324867 0.706718 0.135257 1.24558C-0.04946 1.76792 -0.0451785 2.22176 0.149325 2.60771C0.342604 2.99488 0.705921 3.28174 1.23744 3.46952C1.4925 3.56004 1.7188 3.61998 1.91331 3.65179C2.11026 3.68298 2.30965 3.68543 2.51455 3.65852L2.79408 2.86644C2.57266 2.88784 2.37388 2.88784 2.19895 2.86705C2.0234 2.84625 1.83869 2.8016 1.64663 2.73371C1.43439 2.65848 1.28454 2.54838 1.19768 2.40342C1.11022 2.25907 1.0937 2.09515 1.14998 1.9141L3.11886 2.61016L3.29134 2.12023C3.45832 1.64926 3.45526 1.24252 3.28095 0.898774C3.10785 0.555641 2.78062 0.299362 2.30048 0.129325" transform="translate(44.79567 108.03807)" id="Fill-32" fill="#FFFFFF" fill-rule="evenodd" stroke="none" />
            <path d="M2.9255 0.481364C2.70347 0.423258 2.49796 0.410414 2.30712 0.442831C2.11568 0.474025 1.95298 0.554762 1.81536 0.683819L1.74869 0.666693L1.71444 0.224474L0.862419 0L0 3.27169L1.12848 3.57017L1.50709 2.13709C1.60312 1.76826 1.71505 1.5181 1.84044 1.38782C1.9646 1.25876 2.12241 1.2184 2.31324 1.26794C2.45208 1.30586 2.53832 1.3866 2.57074 1.51443C2.60499 1.64165 2.59337 1.81414 2.53527 2.03188L2.0643 3.81666L3.19401 4.11392L3.75489 1.9854C3.85519 1.60373 3.83379 1.28262 3.6876 1.019C3.54203 0.755993 3.28759 0.577393 2.9255 0.481364" transform="translate(48.284878 108.93043)" id="Fill-34" fill="#FFFFFF" fill-rule="evenodd" stroke="none" />
            <path d="M2.19572 1.8409C2.14495 2.12837 2.06972 2.34 1.96941 2.4764C1.8691 2.61402 1.73026 2.66662 1.55166 2.6342C1.37122 2.6024 1.25562 2.50453 1.20608 2.34122C1.15592 2.17791 1.15653 1.95344 1.2073 1.66658C1.25807 1.38033 1.33391 1.17176 1.43606 1.04087C1.5382 0.910587 1.67766 0.860432 1.85442 0.892238C2.03363 0.924655 2.14923 1.01946 2.19817 1.17788C2.24649 1.33629 2.24649 1.55648 2.19572 1.8409M2.84773 0.401087C2.62081 0.217594 2.34496 0.095877 2.01712 0.0389941C1.48743 -0.0558108 1.0495 0.0224797 0.703305 0.271419C0.357114 0.520358 0.135699 0.916092 0.0396707 1.45984C-0.0551343 1.99075 0.0200981 2.4397 0.264144 2.80424C0.508191 3.16817 0.882517 3.39631 1.38896 3.485C1.91559 3.57919 2.35352 3.49968 2.70094 3.24584C3.04774 2.99262 3.26916 2.59383 3.36641 2.04886C3.42757 1.70144 3.41289 1.38645 3.32298 1.10264C3.23246 0.81884 3.07465 0.584581 2.84773 0.401087" transform="translate(52.572838 110.096306)" id="Fill-36" fill="#FFFFFF" fill-rule="evenodd" stroke="none" />
            <path d="M1.63737 0.799727C1.74563 0.811348 1.88387 0.848659 2.05207 0.914716C2.21966 0.980162 2.37685 1.05539 2.52487 1.1398L2.91388 0.422342C2.71264 0.307353 2.51753 0.216829 2.32608 0.149548C2.13648 0.0810439 1.93035 0.0363938 1.70832 0.0143746C1.26672 -0.0284406 0.915632 0.0241609 0.656906 0.175237C0.398181 0.32509 0.253221 0.556904 0.222639 0.869455C0.197561 1.11839 0.239153 1.32819 0.346191 1.5019C0.452617 1.67621 0.65446 1.84136 0.951108 1.99855C1.27711 2.16675 1.47162 2.27868 1.53829 2.3319C1.60373 2.38511 1.63431 2.44138 1.6282 2.50071C1.61597 2.61631 1.48507 2.66096 1.23369 2.6365C1.06487 2.61937 0.876487 2.57411 0.666081 2.50132C0.455064 2.42915 0.263619 2.34352 0.0917467 2.24749L0 3.1778C0.184717 3.26772 0.368822 3.33561 0.549869 3.38087C0.73275 3.42552 0.947438 3.46038 1.1976 3.48546C1.65695 3.53011 2.01965 3.47323 2.28266 3.31298C2.54689 3.15395 2.69613 2.89278 2.73222 2.53191C2.75057 2.35208 2.73833 2.19611 2.69552 2.06461C2.65393 1.93372 2.57931 1.81628 2.47288 1.71108C2.36584 1.60649 2.19947 1.49333 1.97378 1.37345C1.66857 1.21748 1.48507 1.11595 1.4233 1.06824C1.3603 1.02114 1.33155 0.968541 1.33828 0.91227C1.34684 0.818076 1.44654 0.781378 1.63737 0.799727" transform="translate(56.474308 110.6166)" id="Fill-38" fill="#FFFFFF" fill-rule="evenodd" stroke="none" />
            <path d="M1.74625 2.61111C1.92056 1.92423 2.03372 1.46428 2.08449 1.23063C2.13525 0.997593 2.16828 0.828779 2.1848 0.727857C2.2062 0.837342 2.24841 1.01839 2.31446 1.26977C2.3793 1.52238 2.43435 1.7279 2.47961 1.88692L2.67533 2.60133L1.74625 2.61111ZM1.38415 0.0152911L0 4.41302L1.29608 4.4014L1.51015 3.58118L2.92856 3.56772L3.15058 4.38366L4.44176 4.37204L2.95791 0L1.38415 0.0152911Z" transform="translate(61.206055 109.919205)" id="Fill-40" fill="#FFFFFF" fill-rule="evenodd" stroke="none" />
            <path d="M0 0.0893002L0.257502 3.46375L1.42207 3.37444L1.16518 0L0 0.0893002Z" transform="translate(65.96869 110.74884)" id="Fill-42" fill="#FFFFFF" fill-rule="evenodd" stroke="none" />
            <path d="M0.658553 1.035C1.07325 1.00319 1.26714 0.816639 1.24145 0.475954C1.22861 0.304693 1.16867 0.179306 1.06285 0.0991808C0.956425 0.0196671 0.796173 -0.0115268 0.57965 0.00376435C0.362516 0.0208904 0.209604 0.0759384 0.119081 0.168908C0.0273337 0.261266 -0.0099767 0.395828 0.00225623 0.569535C0.0279454 0.912056 0.246915 1.0668 0.658553 1.035" transform="translate(65.87248 109.43041)" id="Fill-44" fill="#FFFFFF" fill-rule="evenodd" stroke="none" />
            <path d="M2.30834 0.00222102C2.2166 -0.00328379 2.11874 0.00160937 2.01843 0.0150656C1.84288 0.0376964 1.6759 0.114764 1.51627 0.245656C1.35785 0.377159 1.24103 0.538634 1.16702 0.728244L1.11075 0.735583L0.861195 0.22119L0 0.331286L0.426928 3.68922L1.58538 3.54181L1.37498 1.89159C1.34745 1.67324 1.38354 1.50014 1.48324 1.36986C1.58232 1.23897 1.76031 1.15884 2.01231 1.12642C2.18051 1.10563 2.31385 1.09951 2.41171 1.11113L2.37501 0.00527924L2.30834 0.00222102Z" transform="translate(67.89286 110.351494)" id="Fill-46" fill="#FFFFFF" fill-rule="evenodd" stroke="none" />
            <path d="M1.22936 1.0141C1.30398 0.910727 1.40857 0.846504 1.54313 0.819592C1.68932 0.790233 1.81531 0.814699 1.92113 0.893601C2.02817 0.971892 2.09851 1.09055 2.13398 1.25019L1.14985 1.4453C1.12905 1.26059 1.15596 1.11685 1.22936 1.0141M2.65755 2.45391C2.49669 2.52547 2.31625 2.58174 2.11441 2.6215C1.89299 2.66493 1.70828 2.6478 1.55965 2.56706C1.41102 2.48755 1.31499 2.35482 1.26912 2.17133L3.31751 1.76458L3.21598 1.25508C3.11812 0.764544 2.90771 0.415294 2.58293 0.20917C2.25937 0.00243403 1.84712 -0.0507791 1.3468 0.0483074C0.822005 0.152287 0.447067 0.382877 0.223817 0.738855C-4.52242e-05 1.09483 -0.0557048 1.55357 0.0556144 2.11383C0.163264 2.65697 0.399358 3.04476 0.763287 3.27779C1.12722 3.51083 1.58534 3.57383 2.13887 3.46312C2.40372 3.41113 2.6288 3.34691 2.81352 3.27412C2.99823 3.20073 3.17072 3.10103 3.33158 2.97319L3.16827 2.14992C2.98967 2.28081 2.81902 2.38235 2.65755 2.45391" transform="translate(70.82024 109.91365)" id="Fill-48" fill="#FFFFFF" fill-rule="evenodd" stroke="none" />
            <path d="M2.77675 1.65603C2.6905 1.54838 2.57919 1.4652 2.44156 1.40648C2.30394 1.34654 2.10822 1.30189 1.85439 1.27069C1.51309 1.23461 1.30574 1.20525 1.23112 1.18445C1.15466 1.16243 1.1094 1.12451 1.09411 1.06885C1.06964 0.977715 1.14916 0.907376 1.33388 0.85661C1.43908 0.827862 1.58159 0.813183 1.76142 0.814406C1.94185 0.815018 2.11617 0.828474 2.28498 0.853551L2.38835 0.0443454C2.16082 0.010705 1.94491 -0.00397449 1.74429 0.000918665C1.54122 0.00703511 1.33265 0.038229 1.11796 0.0981702C0.689813 0.216829 0.381543 0.392371 0.193768 0.62602C0.00721643 0.859668 -0.0447734 1.12818 0.0384103 1.43156C0.10508 1.67132 0.218846 1.85298 0.382155 1.97714C0.544241 2.10069 0.791346 2.18204 1.1253 2.22302C1.48923 2.26156 1.71187 2.2952 1.792 2.32089C1.87212 2.3478 1.92167 2.38939 1.93757 2.44689C1.96815 2.55882 1.86111 2.64751 1.61768 2.71479C1.45376 2.76066 1.2617 2.78696 1.04029 2.7943C0.818258 2.80164 0.608464 2.79124 0.412737 2.76311L0.662289 3.66406C0.866578 3.6818 1.06353 3.67935 1.24824 3.65488C1.43418 3.63164 1.64826 3.58699 1.88986 3.52032C2.33575 3.39677 2.65258 3.21328 2.84097 2.96923C3.02936 2.72457 3.07523 2.42792 2.9792 2.07806C2.93088 1.90375 2.8636 1.76368 2.77675 1.65603" transform="translate(74.49245 109.04058)" id="Fill-50" fill="#FFFFFF" fill-rule="evenodd" stroke="none" />
            <path d="M2.46676 3.3344C2.39887 3.39373 2.31202 3.44572 2.20682 3.48854C2.07103 3.5442 1.94564 3.55215 1.83249 3.51178C1.71995 3.47263 1.63982 3.39434 1.59211 3.27752C1.51933 3.09892 1.53523 2.92277 1.64043 2.74845L2.6105 3.1662C2.58298 3.2188 2.53404 3.27385 2.46676 3.3344M1.06671 1.27928C1.02573 1.17836 1.02451 1.09211 1.06304 1.02239C1.10341 0.952048 1.16151 0.901281 1.23858 0.870699C1.31871 0.83767 1.3921 0.830942 1.46122 0.849292C1.52911 0.867641 1.58233 0.922077 1.61902 1.01138C1.6545 1.09884 1.66062 1.19365 1.63921 1.29885C1.6178 1.40344 1.56642 1.50681 1.48569 1.60895C1.26305 1.52699 1.12298 1.4169 1.06671 1.27928M4.22646 1.84627C4.24053 1.5429 4.22463 1.25298 4.17509 0.975902L3.05211 1.43341C3.10838 1.72272 3.11021 2.00163 3.05884 2.26953L2.29428 1.97105C2.48572 1.71599 2.60377 1.47623 2.64842 1.25542C2.69491 1.03156 2.67656 0.819321 2.59276 0.615032C2.47166 0.317161 2.26798 0.127551 1.98051 0.0437562C1.69303 -0.0406507 1.35541 -0.00272875 0.9664 0.155687C0.56822 0.317773 0.290533 0.53246 0.13334 0.798525C-0.0226289 1.06459 -0.0428132 1.34534 0.0782924 1.64015C0.152913 1.82303 0.250776 1.97349 0.374328 2.09215C0.496657 2.21142 0.642229 2.31173 0.808596 2.3943C0.41225 2.85548 0.311941 3.32706 0.50889 3.81026C0.60186 4.03902 0.744985 4.21823 0.93643 4.34851C1.12849 4.4794 1.35663 4.54852 1.62208 4.55647C1.88692 4.56442 2.16461 4.50876 2.45575 4.39071C2.62579 4.3216 2.77136 4.24942 2.89553 4.17541C3.01969 4.10079 3.12612 4.0225 3.21542 3.93932C3.30533 3.85675 3.41114 3.72952 3.53592 3.55582L3.9237 3.72708L5.32314 3.1558L4.0919 2.6671C4.16714 2.42428 4.21117 2.15026 4.22646 1.84627" transform="translate(79.01586 106.478195)" id="Fill-52" fill="#FFFFFF" fill-rule="evenodd" stroke="none" />
            <path d="M1.86735 1.88081L2.38541 2.4111L1.57743 2.87045C1.39638 2.18479 1.27161 1.72851 1.20249 1.50036C1.13338 1.27161 1.08078 1.1083 1.04652 1.01105C1.11747 1.09607 1.24347 1.23369 1.42207 1.42269C1.6019 1.61107 1.75053 1.76521 1.86735 1.88081L1.86735 1.88081ZM0 0.778012L0.927864 5.2944L2.05451 4.65339L1.84227 3.83257L3.07596 3.13162L3.66742 3.73654L4.7904 3.0992L1.36825 0L0 0.778012Z" transform="translate(85.1054 103.49792)" id="Fill-54" fill="#FFFFFF" fill-rule="evenodd" stroke="none" />
            <path d="M1.79212 1.62086C1.82331 1.45938 1.94381 1.30709 2.15482 1.16518C2.29611 1.07099 2.41233 1.00677 2.50468 0.973127L1.97622 0L1.91445 0.0281357C1.83065 0.0648344 1.74563 0.112543 1.66123 0.168814C1.51382 0.2679 1.39883 0.412249 1.31626 0.601247C1.23308 0.790245 1.20127 0.985972 1.22023 1.18904L1.17375 1.22145L0.721129 0.874041L0 1.35908L1.88937 4.16714L2.85883 3.51512L1.92974 2.13464C1.80619 1.95237 1.76154 1.78233 1.79212 1.62086" transform="translate(88.492744 102.075294)" id="Fill-56" fill="#FFFFFF" fill-rule="evenodd" stroke="none" />
            <path d="M3.61181 3.97263C3.52129 4.13349 3.36349 4.29925 3.13963 4.47296C3.00262 4.57877 2.87601 4.64177 2.75796 4.65828C2.63991 4.6748 2.55183 4.64666 2.49312 4.57143C2.44113 4.50293 2.43073 4.41852 2.46437 4.31943C2.49495 4.21974 2.56162 4.13288 2.66071 4.05581L3.02097 3.77568C3.17449 3.65641 3.30232 3.57996 3.40691 3.54631C3.51151 3.51145 3.59102 3.52919 3.64668 3.60014C3.71457 3.68822 3.70234 3.81238 3.61181 3.97263M1.12976 2.21415C0.91752 1.94014 0.907122 1.72973 1.09734 1.58232C1.28084 1.43859 1.48084 1.50648 1.69492 1.78294C1.80073 1.91873 1.85517 2.03922 1.86006 2.14381C1.86435 2.24902 1.82214 2.33526 1.73468 2.40315C1.54384 2.55117 1.342 2.48817 1.12976 2.21415M2.84053 2.76219L2.39709 3.10654C2.27782 3.1989 2.172 3.26251 2.07842 3.29554C1.98545 3.32857 1.92184 3.32184 1.88575 3.27597C1.85762 3.24049 1.83927 3.1934 1.82887 3.13529C1.89799 3.10287 1.98056 3.04721 2.07964 2.97015C2.48027 2.66004 2.72126 2.34566 2.80016 2.02944C2.87845 1.71505 2.80628 1.41168 2.58242 1.12481C2.48945 1.0031 2.3818 0.916855 2.26008 0.864865L2.52186 0.445889L2.17567 0L1.24353 0.723575C1.1793 0.758439 1.08389 0.816545 0.956054 0.897282C0.826385 0.979243 0.73892 1.03918 0.689988 1.07711C0.321778 1.36213 0.100974 1.66306 0.0275771 1.97622C-0.0470436 2.29122 0.0300237 2.5946 0.255721 2.88574C0.40068 3.07229 0.563378 3.20012 0.743813 3.26924C0.92486 3.33836 1.10835 3.34936 1.29429 3.30349C1.21845 3.5035 1.18114 3.65396 1.18542 3.75427C1.1897 3.85275 1.22395 3.94327 1.28818 4.02707C1.34689 4.1023 1.43681 4.15551 1.55669 4.18548C1.67718 4.21545 1.79278 4.21606 1.90104 4.18732C1.57626 4.58794 1.53773 4.94759 1.78667 5.26748C1.97016 5.5048 2.21421 5.60694 2.51758 5.57453C2.82157 5.54089 3.16226 5.37819 3.54209 5.08399C4.04364 4.69498 4.36353 4.30108 4.49992 3.90535C4.63815 3.509 4.58005 3.14691 4.32683 2.82213C3.93599 2.3163 3.43994 2.29734 2.84053 2.76219" transform="translate(91.15885 99.90328)" id="Fill-58" fill="#FFFFFF" fill-rule="evenodd" stroke="none" />
            <path d="M1.00575 1.38711C1.01615 1.26111 1.0712 1.15102 1.17334 1.05927C1.28405 0.958959 1.40516 0.914921 1.53605 0.927765C1.66755 0.939998 1.78988 1.00544 1.90242 1.12349L1.15866 1.79875C1.04551 1.65134 0.995353 1.51372 1.00575 1.38711M2.97219 1.88621C2.87005 2.03056 2.74343 2.17185 2.59175 2.31008C2.42477 2.46116 2.25657 2.54067 2.08897 2.54862C1.91955 2.55657 1.76786 2.49357 1.63575 2.3584L3.18198 0.955289L2.83151 0.570565C2.49633 0.201132 2.13546 0.0096872 1.75257 0.000512534C1.36723 -0.0104971 0.98679 0.15587 0.608182 0.499003C0.211836 0.859261 0.00999339 1.24827 0.000207069 1.66969C-0.00713267 2.08989 0.180642 2.51131 0.564755 2.93518C0.937247 3.34498 1.3391 3.556 1.77153 3.56823C2.20335 3.58108 2.62783 3.39758 3.04559 3.01959C3.2456 2.83732 3.40646 2.66728 3.52634 2.50887C3.64683 2.35167 3.74409 2.17613 3.81687 1.98407L3.25232 1.36264C3.16608 1.56754 3.0725 1.74186 2.97219 1.88621" transform="translate(94.15435 98.037674)" id="Fill-60" fill="#FFFFFF" fill-rule="evenodd" stroke="none" />
            <path d="M2.23984 0.000129351C1.93952 0.00318758 1.66061 0.141419 1.40434 0.415436C1.24837 0.581804 1.13949 0.756734 1.07649 0.940228C1.01411 1.1225 1.00738 1.30477 1.05509 1.48765L1.0086 1.53719L0.603693 1.35798L0 2.00082L2.47043 4.31467L3.26863 3.46265L2.18785 2.45038C1.90833 2.18798 1.74196 1.97207 1.6863 1.79959C1.63126 1.62955 1.67162 1.47114 1.8068 1.3274C1.90466 1.22281 2.01781 1.1855 2.14504 1.21669C2.27348 1.2485 2.41905 1.34024 2.58359 1.49438L3.93043 2.7562L4.72923 1.90357L3.12244 0.398922C2.83436 0.129186 2.54016 -0.00476381 2.23984 0.000129351" transform="translate(96.403755 95.094765)" id="Fill-62" fill="#FFFFFF" fill-rule="evenodd" stroke="none" />
            <path d="M3.16587 1.98723C3.03254 2.15115 2.88085 2.16339 2.71142 2.02516L1.68814 1.19638L2.2111 0.551092L1.53095 0L1.00799 0.645285L0.481364 0.217745L0 0.811652L0.362094 1.49364L0.319279 2.12852L0.688712 2.42823L0.946826 2.11017L2.03005 2.98911C2.33893 3.23927 2.62334 3.35854 2.88146 3.34508C3.13957 3.33163 3.39279 3.1726 3.6399 2.868C3.75978 2.71937 3.85397 2.58053 3.92125 2.45208C3.98792 2.32364 4.04481 2.17684 4.0919 2.01109L3.43133 1.47529C3.35304 1.69426 3.26435 1.8649 3.16587 1.98723" transform="translate(98.96062 92.433876)" id="Fill-64" fill="#FFFFFF" fill-rule="evenodd" stroke="none" />
            <path d="M0.17529 0.314763C0.0480684 0.490305 -0.0106495 0.641993 0.00158341 0.771661C0.0119814 0.900718 0.0878252 1.01754 0.230338 1.12091C0.507413 1.32336 0.76675 1.25792 1.0108 0.924572C1.25545 0.58878 1.24077 0.320268 0.964311 0.118426C0.82608 0.0168929 0.69213 -0.0191941 0.562461 0.00955316C0.432793 0.0383004 0.303736 0.139833 0.17529 0.314763" transform="translate(99.92304 90.34987)" id="Fill-66" fill="#FFFFFF" fill-rule="evenodd" stroke="none" />
            <path d="M0 0.941933L2.73161 2.94079L3.41971 1.99886L0.688101 0L0 0.941933Z" transform="translate(100.851265 91.001526)" id="Fill-68" fill="#FFFFFF" fill-rule="evenodd" stroke="none" />
            <path d="M1.83432 0.0191173C1.53829 0.0790584 1.29118 0.264387 1.09056 0.580607C0.96701 0.773275 0.891166 0.965942 0.863031 1.15678C0.835507 1.34822 0.862419 1.52927 0.943156 1.69869L0.905234 1.7568L0.474636 1.65465L0 2.3978L2.85271 4.21867L3.48087 3.23514L2.2325 2.43756C1.91078 2.23143 1.70649 2.04916 1.62025 1.89136C1.53584 1.73233 1.54501 1.57025 1.65205 1.40388C1.72851 1.28277 1.83371 1.22589 1.96399 1.23323C2.09672 1.24057 2.25636 1.30479 2.44597 1.42529L4.00199 2.4186L4.63015 1.43446L2.77503 0.249707C2.44352 0.036855 2.12913 -0.0396006 1.83432 0.0191173" transform="translate(102.002266 87.989876)" id="Fill-70" fill="#FFFFFF" fill-rule="evenodd" stroke="none" />
            <path d="M2.46432 1.64943C2.59154 1.7161 2.67044 1.81519 2.70286 1.94608C2.73466 2.07636 2.71815 2.20419 2.65209 2.32958C2.54872 2.52531 2.4056 2.57424 2.2221 2.4776C1.98479 2.35221 1.94992 2.11612 2.1169 1.76931L2.23189 1.5271L2.46432 1.64943ZM1.18476 0.0622142C0.883215 0.17231 0.631217 0.420026 0.428151 0.802915C0.147406 1.33443 0.00489316 1.82253 0 2.26597L0.839176 2.32774C0.868535 1.91366 0.941932 1.59683 1.05692 1.37908C1.18598 1.13565 1.37253 1.07877 1.61902 1.20905L1.66123 1.23107L1.41412 1.73934C1.20983 2.17055 1.12848 2.53754 1.16641 2.84214C1.20494 3.14551 1.38415 3.38283 1.70282 3.55042C2.00925 3.71251 2.29 3.75716 2.54444 3.68498C2.79827 3.6122 3.00012 3.43543 3.14936 3.15346C3.27046 2.92471 3.33774 2.72042 3.3512 2.54304C3.36343 2.36505 3.32001 2.16138 3.22153 1.93079L3.23193 1.90999L3.73348 1.92039L4.11086 1.20477L2.14871 0.168029C1.80741 -0.0124064 1.48568 -0.0472701 1.18476 0.0622142L1.18476 0.0622142Z" transform="translate(104.42511 84.68946)" id="Fill-72" fill="#FFFFFF" fill-rule="evenodd" stroke="none" />
            <path d="M6.6706 0.716236L5.54578 0L4.15979 2.18051L0.737643 0.00428151L0 1.16457L4.54697 4.05582L6.6706 0.716236Z" transform="translate(19.56119 37.927532)" id="Fill-74" fill="#FFFFFF" fill-rule="evenodd" stroke="none" />
            <path d="M5.77943 5.45954C6.82779 4.23747 6.58191 2.87901 5.52804 1.975L3.22581 0L2.33037 1.04347L4.56899 2.96464C5.16167 3.47292 5.23996 4.04052 4.76777 4.59162C4.29986 5.1372 3.73164 5.14087 3.13896 4.63198L0.899118 2.71142L0 3.76039L2.30223 5.73478C3.35671 6.6394 4.72679 6.6865 5.77943 5.45954" transform="translate(23.06622 29.896027)" id="Fill-76" fill="#FFFFFF" fill-rule="evenodd" stroke="none" />
            <path d="M4.53596 6.42655L2.59521 4.1286L6.37395 4.8742L7.26695 4.12004L3.78669 0L2.73589 0.887496L4.6803 3.19095L0.897283 2.44046L0 3.19951L3.47903 7.31894L4.53596 6.42655Z" transform="translate(28.343613 24.479057)" id="Fill-78" fill="#FFFFFF" fill-rule="evenodd" stroke="none" />
            <path d="M4.00383 5.97026L3.03376 4.39956L4.91151 3.24049L4.25399 2.17501L2.37685 3.33346L1.87591 2.5212L4.11209 1.14133L3.40808 0L0 2.10222L2.83253 6.69323L4.00383 5.97026Z" transform="translate(34.549236 20.52606)" id="Fill-80" fill="#FFFFFF" fill-rule="evenodd" stroke="none" />
            <path d="M2.52181 3.10349L1.44042 3.5824L1.34317 1.89488L2.52181 3.10349ZM1.56642 5.75741L1.51871 4.91701L3.45824 4.05765L4.0497 4.65706L5.42712 4.04603L1.25143 0L0 0.55415L0.188387 6.36844L1.56642 5.75741Z" transform="translate(41.436356 18.126333)" id="Fill-82" fill="#FFFFFF" fill-rule="evenodd" stroke="none" />
            <path d="M2.79338 1.32771C3.32735 1.18642 3.60809 1.43353 3.71452 1.83354C3.80994 2.19442 3.69678 2.57486 3.1622 2.71676L2.02087 3.02014L1.65144 1.63109L2.79338 1.32771ZM2.71142 5.62391L2.34138 4.22813L3.02275 4.04709L4.38121 5.18108L5.9776 4.75721L4.43014 3.4807C5.04668 2.97426 5.19286 2.20665 4.99897 1.47818C4.72496 0.443277 3.87966 -0.26195 2.54444 0.0928043L0 0.768672L1.38354 5.97744L2.71142 5.62391Z" transform="translate(47.174557 15.520831)" id="Fill-84" fill="#FFFFFF" fill-rule="evenodd" stroke="none" />
            <path d="M2.52487 1.36284C3.34325 1.2766 3.83318 1.7757 3.91697 2.5794C4.00138 3.38494 3.62522 3.97884 2.80684 4.06447L1.7964 4.17029L1.51443 1.46804L2.52487 1.36284ZM3.04844 5.38073C4.72618 5.2058 5.45832 3.89933 5.30602 2.43444C5.15372 0.977502 4.16652 -0.157099 2.48878 0.0178316L0 0.277781L0.559655 5.64068L3.04844 5.38073Z" transform="translate(54.494663 14.171651)" id="Fill-86" fill="#FFFFFF" fill-rule="evenodd" stroke="none" />
            <path d="M3.03315 1.79823L3.54693 3.40747L2.36645 3.35242L3.03315 1.79823ZM1.8386 4.57999L3.95857 4.67847L4.21852 5.47972L5.72377 5.54884L3.79893 0.0629994L2.4319 0L0 5.28339L1.50526 5.35311L1.8386 4.57999Z" transform="translate(61.33328 13.836014)" id="Fill-88" fill="#FFFFFF" fill-rule="evenodd" stroke="none" />
            <path d="M0.564548 5.63936L1.89793 5.99962L2.95363 2.09182L4.57449 2.53037L4.92435 1.23675L0.348637 0L0 1.29424L1.62025 1.73218L0.564548 5.63936Z" transform="translate(72.45744 14.745284)" id="Fill-90" fill="#FFFFFF" fill-rule="evenodd" stroke="none" />
            <path d="M2.91816 1.70343L4.00016 2.17745C4.50599 2.39948 4.57204 2.76769 4.40506 3.14691C4.25521 3.48882 3.92982 3.71574 3.42337 3.49371L2.34076 3.01969L2.91816 1.70343ZM1.83922 4.16469L2.48511 4.44727L2.84231 6.18067L4.3543 6.84308L3.93899 4.88154C4.73658 4.8693 5.32926 4.35919 5.63202 3.66926C6.06201 2.68818 5.84059 1.61107 4.57449 1.0557L2.16278 0L0 4.93597L1.25938 5.48768L1.83922 4.16469Z" transform="translate(77.813614 16.781143)" id="Fill-92" fill="#FFFFFF" fill-rule="evenodd" stroke="none" />
            <path d="M4.36164 1.85879L4.00872 3.50901L3.01113 2.87534L4.36164 1.85879ZM1.271 4.18365L1.94381 3.67782L3.73348 4.81548L3.56161 5.63998L4.83261 6.44796L5.8877 0.733362L4.73352 0L0 3.37506L1.271 4.18365Z" transform="translate(83.488266 20.783072)" id="Fill-94" fill="#FFFFFF" fill-rule="evenodd" stroke="none" />
            <path d="M6.20697 3.72186L5.06014 2.74323L1.6704 4.61608L2.99155 0.979243L1.8435 0L0 5.51887L1.04285 6.4082L6.20697 3.72186Z" transform="translate(90.446396 23.332346)" id="Fill-96" fill="#FFFFFF" fill-rule="evenodd" stroke="none" />
            <path d="M2.71203 6.66142L3.72063 5.78799L1.91445 3.7029L2.43679 3.24967L3.92187 4.96411L4.86747 4.14512L3.38301 2.43068L3.96835 1.92423L5.77393 4.00811L6.78803 3.1304L4.076 0L0 3.53164L2.71203 6.66142Z" transform="translate(94.47683 28.869198)" id="Fill-98" fill="#FFFFFF" fill-rule="evenodd" stroke="none" />
            <path d="M2.16155 6.2608L3.27964 5.53294L1.86796 3.36649L5.26749 1.15173L4.517 0L0 2.94262L2.16155 6.2608Z" transform="translate(98.52666 34.21314)" id="Fill-100" fill="#FFFFFF" fill-rule="evenodd" stroke="none" />
            <path d="M1.04895 11.0567C1.35783 10.36 1.75111 9.50863 2.03492 8.95753L2.17743 10.8243L1.04895 11.0567ZM3.49002 10.5552L3.1426 10.6267L3.14199 10.6267L2.60069 10.7374L2.47347 9.05417L3.49002 10.5552ZM3.49614 7.67859L3.48941 9.78937L2.48631 8.30858C2.66736 8.17891 3.01538 7.95872 3.49614 7.67859L3.49614 7.67859ZM5.11332 10.6591L4.23439 12.302L3.52182 10.9864L5.11332 10.6591ZM5.30416 6.68589L5.30416 7.98502L3.87536 7.45962C4.28332 7.22842 4.76224 6.96724 5.30416 6.68589L5.30416 6.68589ZM4.25152 8.05597L5.30416 8.44314L5.30416 9.64441L4.25152 8.05597ZM5.1647 10.2108L3.91634 10.4671L3.92306 8.33794L5.1647 10.2108ZM5.63383 14.8911L4.47844 12.7546L5.35859 11.1105L5.63383 14.8911ZM5.73353 8.60033L6.38677 8.8401L6.88954 9.85604L5.73353 10.0934L5.73353 8.60033ZM5.73353 7.52323L6.10908 8.28167L5.73353 8.14282L5.73353 7.52323ZM6.97089 5.85772L6.97089 6.94033L5.73842 6.46264C6.12376 6.26752 6.53601 6.06507 6.97089 5.85772L6.97089 5.85772ZM7.39965 9.21259L8.33791 9.55817L7.39965 9.75084L7.39965 9.21259ZM7.39965 7.56665L7.74156 7.69877L8.30488 9.08781L7.39965 8.75508L7.39965 7.56665ZM7.39965 6.85715L7.51953 7.15318L7.39965 7.10609L7.39965 6.85715ZM9.00705 4.93842L8.85353 6.22654L7.44614 5.63508C7.94157 5.40327 8.46269 5.17084 9.00705 4.93842L9.00705 4.93842ZM11.0811 8.99301L8.9043 9.44073L9.05109 8.20705L11.0811 8.99301ZM9.21257 6.84247L10.4726 7.37154L11.094 8.53795L9.10247 7.76666L9.21257 6.84247ZM9.39055 5.3421L10.1527 6.77152L9.26517 6.39903L9.39055 5.3421ZM11.3411 5.76414L11.3411 7.27123L10.7796 7.03452L9.73491 5.07543L11.3411 5.76414ZM11.3937 3.98853L11.3931 3.98853C11.376 4.00994 11.3625 4.03196 11.3533 4.05704L11.3527 4.05826C11.3515 4.06132 11.3521 4.06438 11.3515 4.06866C11.346 4.08762 11.3411 4.10719 11.3411 4.12799L11.3411 5.29623L9.76549 4.62159C10.2927 4.40629 10.8359 4.19344 11.3937 3.98853L11.3937 3.98853ZM13.9846 3.12245L13.9834 3.12367C13.9657 3.14202 13.9491 3.16281 13.9381 3.18911L13.3363 4.5121L11.6255 3.92492C11.6188 3.92248 11.6127 3.9237 11.6065 3.92186C11.601 3.92064 11.5955 3.91819 11.59 3.91697C12.3668 3.635 13.1675 3.36771 13.9846 3.12245L13.9846 3.12245ZM14.132 5.23874L14.9516 5.5207L14.3528 6.5868L13.9987 6.43511L14.132 5.23874ZM15.5871 2.68023C15.9584 2.58664 16.3284 2.49796 16.6973 2.4111L15.9113 3.81177L14.2183 3.08024C14.214 3.07841 14.2097 3.07841 14.2048 3.07718C14.1993 3.07535 14.1962 3.07168 14.1901 3.06984C14.1822 3.06801 14.1748 3.06923 14.1675 3.06801C14.636 2.93039 15.1094 2.80011 15.5871 2.68023L15.5871 2.68023ZM16.7205 4.16163L16.3076 3.98364L16.7205 3.24722L16.7205 4.16163ZM17.1493 6.27608L17.4123 6.366L17.1493 6.94033L17.1493 6.27608ZM17.1493 4.81425L17.9603 5.16534L17.5915 5.97332L17.1493 5.82163L17.1493 4.81425ZM17.1493 2.75729L18.7371 3.46435L18.1383 4.7745L17.1493 4.34757L17.1493 2.75729ZM19.4925 1.81047L18.9151 3.07413L17.1786 2.30101C17.9628 2.12241 18.7371 1.95849 19.4925 1.81047L19.4925 1.81047ZM19.7445 3.44356L19.3071 3.24844L19.6778 2.43863L19.7445 3.44356ZM19.8821 5.52927L18.5328 4.94515L19.1292 3.63929L19.7757 3.92737L19.8821 5.52927ZM19.9665 6.78925L17.9988 6.114L18.3542 5.33538L19.9145 6.01002L19.9665 6.78925ZM21.7702 3.18606L21.3268 4.14817L20.1879 3.64051L20.079 2.00742L21.7702 3.18606ZM22.6669 1.2447L21.9537 2.78971L20.3188 1.65144C21.1323 1.49975 21.9189 1.36458 22.6669 1.2447L22.6669 1.2447ZM22.8143 5.28094L23.0889 5.40327L22.7519 5.96292L22.8143 5.28094ZM22.9318 3.99526L23.6413 4.48947L23.3128 5.03322L22.8559 4.82955L22.9318 3.99526ZM23.1679 1.43553L24.845 2.49306L23.8627 4.12065L22.9776 3.5035L23.1679 1.43553ZM25.8744 0.786575L25.0664 2.12608L23.4718 1.11931C24.3428 0.987194 25.1508 0.876487 25.8744 0.786575L25.8744 0.786575ZM26.0499 2.7469L25.4291 2.35483L26.0499 1.32727L26.0499 2.7469ZM26.4787 3.52491L27.1876 3.97202L26.4787 5.23445L26.4787 3.52491ZM26.4787 0.974961L28.1815 2.20131L27.398 3.5983L26.4787 3.01663L26.4787 0.974961ZM29.1669 0.445889L28.3931 1.82454L26.7986 0.675867C27.8989 0.549868 28.7228 0.477694 29.1669 0.445889L29.1669 0.445889ZM29.3283 2.49857L28.7436 2.07715L29.3283 1.0349L29.3283 2.49857ZM29.8629 5.56841L28.8843 7.96422L27.9576 5.96048L29.8629 5.56841ZM29.7577 3.33652L31.718 4.74881L29.7577 5.15188L29.7577 3.33652ZM29.7577 0.759663L33.1921 4.44482L32.2893 4.63076L29.7577 2.80745L29.7577 0.759663ZM37.6608 6.51218L33.7432 4.40629L30.8544 1.30831C32.474 2.479 35.2454 4.6173 37.6608 6.51218L37.6608 6.51218ZM36.5311 8.32448L36.2552 6.24489L39.1018 7.77461L36.5311 8.32448ZM36.9641 14.8538L34.0594 10.0083L35.8638 6.55683L36.1366 8.61134L36.9641 14.8538ZM38.0039 22.6908L35.2344 18.9188L37.1617 16.3419L38.0039 22.6908ZM39.1165 31.0838L36.1084 27.4292L38.1684 23.9343L39.1165 31.0838ZM40.1587 38.9428L37.0136 35.9353L39.2394 32.0129L40.1587 38.9428ZM34.057 41.1441L36.7947 36.3207L40.034 39.4162L34.057 41.1441ZM33.1792 32.8637L36.4748 36.0142L33.7713 40.7777L33.1792 32.8637ZM28.1925 35.2595L32.7389 32.7218L33.3499 40.8946L28.1925 35.2595ZM23.1079 38.0981L27.8078 35.4748L32.9242 41.0658L23.1079 38.0981ZM23.944 31.2532L27.5099 35.15L22.9415 37.7005L23.944 31.2532ZM25.2334 22.9532L28.0928 26.5619L24.0254 30.7247L25.2334 22.9532ZM26.4738 14.97L28.4757 17.9316L25.3997 21.8865L26.4738 14.97ZM31.2477 14.0966L26.7594 14.299L28.9087 9.03888L31.2477 14.0966ZM31.2734 13.1283L29.1308 8.49636L30.3694 5.46382L30.6935 5.39776L31.2734 13.1283ZM33.5676 10.023L31.7333 13.5332L31.1718 6.02531L33.5676 10.023ZM33.8013 9.57652L31.2299 5.28706L33.5774 4.80508L35.6986 5.94519L33.8013 9.57652ZM31.8911 14.1577L33.8264 10.4542L36.8332 15.4703L31.8911 14.1577ZM32.1095 14.6599L36.9262 15.9388L34.9689 18.5567L32.1095 14.6599ZM32.4453 22.6474L34.9659 19.2772L37.7898 23.1263L32.4453 22.6474ZM35.8179 27.0757L32.5346 23.0865L37.8871 23.5661L35.8179 27.0757ZM32.4954 23.7135L35.5861 27.4702L33.093 31.7003L32.4954 23.7135ZM28.6635 26.5912L32.0226 23.1532L32.6569 31.63L28.6635 26.5912ZM31.5535 23.0205L28.3956 26.2524L25.6303 22.7636L31.5535 23.0205ZM31.6269 22.5935L25.5955 22.3324L28.7289 18.3065L31.6269 22.5935ZM28.7528 17.5756L26.8261 14.7253L31.1217 14.5315L28.7528 17.5756ZM31.8446 15.0244L34.6998 18.9157L32.3688 22.0314L31.8446 15.0244ZM31.9602 22.3214L29.006 17.9499L31.4024 14.8685L31.9602 22.3214ZM32.3022 32.4734L27.8953 34.9347L24.5954 31.3297L32.3022 32.4734ZM24.4762 30.8777L28.3613 26.9014L32.452 32.0618L24.4762 30.8777ZM38.9709 31.6177L36.6931 35.6301L33.4178 32.4985L38.9709 31.6177ZM33.3731 32.0704L35.8766 27.8231L38.6798 31.2293L33.3731 32.0704ZM27.776 6.59047L28.6623 8.50675L26.7521 13.1834L27.776 6.59047ZM27.7613 3.82767L28.532 2.45392L29.3283 3.02703L29.3283 4.81548L27.7613 3.82767ZM29.2286 5.26014L26.6597 5.78922L27.5515 4.20139L29.2286 5.26014ZM24.8095 6.17027L22.8896 6.56417L23.4841 5.57942L24.8095 6.17027ZM24.2156 4.36653L25.2077 2.72243L26.0499 3.25395L26.0499 5.64426L24.2156 4.36653ZM25.7698 5.9721L25.5312 6.02164L23.7079 5.20815L23.9942 4.73474L25.7698 5.9721ZM20.5555 5.81919L20.3255 5.71949L20.2197 4.12432L21.147 4.5384L20.5555 5.81919ZM21.7427 6.80026L20.4521 7.06633L20.769 6.38006L21.7427 6.80026ZM22.4002 5.09622L22.2663 6.55928L20.9488 5.99045L21.539 4.71272L22.4002 5.09622ZM22.3109 3.03926L22.6584 2.28755L22.5721 3.22092L22.3109 3.03926ZM22.5268 3.71329L22.4418 4.64544L21.7183 4.32249L22.1281 3.43561L22.5268 3.71329ZM17.2643 7.7214L17.8196 6.50667L19.8252 7.19477L17.2643 7.7214ZM15.3645 5.66261L16.7205 6.12746L16.7205 7.60091L14.7504 6.75745L15.3645 5.66261ZM16.096 4.3598L16.7205 4.62954L16.7205 5.67423L15.578 5.28216L16.096 4.3598ZM15.1651 5.14087L14.1797 4.80202L14.3143 3.58913L15.7003 4.18854L15.1651 5.14087ZM13.891 7.41191L13.9491 6.881L14.1424 6.96357L13.891 7.41191ZM14.5388 7.133L16.3511 7.90918L13.8097 8.43213L14.5388 7.133ZM13.7442 4.65217L13.7718 4.59162L13.7638 4.65829L13.7442 4.65217ZM12.2641 6.15865L12.428 6.51034L11.9631 7.53179L11.7705 7.45105L11.7705 5.94702L12.2641 6.15865ZM11.9931 5.57575L11.7705 5.48095L11.7705 5.09683L11.9931 5.57575ZM12.7124 5.88463L12.5846 5.82958L11.9631 4.49436L13.1577 4.90417L12.7124 5.88463ZM13.1069 6.05283L13.5656 5.04423L13.7155 5.09561L13.5864 6.25835L13.1069 6.05283ZM12.9002 6.5079L12.9295 6.44368L13.5369 6.70424L13.4323 7.65106L12.9002 6.5079ZM12.3589 7.69877L12.6659 7.0229L13.132 8.02355L12.3589 7.69877ZM13.2641 8.54529L11.8414 8.83704L12.1809 8.089L13.2641 8.54529ZM11.0995 7.63455L11.3411 7.73608L11.3411 8.08778L11.0995 7.63455ZM9.32694 12.5118L8.9936 9.86093L27.4231 6.07057L26.85 9.75634L9.32694 12.5118ZM9.49943 17.3273L9.94226 20.8473L8.38195 18.7732L9.49943 17.3273ZM10.5937 26.0304L8.9624 24.1398L10.1172 22.2406L10.5937 26.0304ZM11.2573 31.3119L9.4719 29.6048L10.7613 27.3625L11.2573 31.3119ZM7.53482 32.9744L9.25171 29.9877L11.1386 31.7915L7.53482 32.9744ZM7.00698 27.8421L8.93182 29.6819L7.34277 32.4477L7.00698 27.8421ZM6.58494 22.0406L8.43333 24.1826L6.92135 26.6671L6.58494 22.0406ZM3.92062 29.2525L6.56598 27.694L6.91829 32.5279L3.92062 29.2525ZM0.742511 31.126L3.54323 29.4758L6.71889 32.9444L0.742511 31.126ZM1.07525 26.7802L3.2472 29.1522L0.489902 30.7755L1.07525 26.7802ZM1.83613 21.5947C2.19884 22.0602 2.82944 22.8419 3.51815 23.6878L1.178 26.0824L1.83613 21.5947ZM2.59885 16.3939C2.85085 16.7291 3.29246 17.3609 3.80318 18.1035L2.02085 20.3347L2.59885 16.3939ZM4.19341 15.682C3.57443 15.7076 3.16034 15.7254 2.87899 15.7443L4.23623 13.2085L5.54331 15.6275L4.19341 15.682ZM6.05403 20.6626C5.34575 19.6014 4.78487 18.7701 4.33959 18.1187L5.74026 16.3652L6.05403 20.6626ZM6.95927 13.003L6.06749 14.94L5.79347 11.1839L6.95927 13.003ZM8.63701 8.04618L8.57095 8.60339L8.29082 7.91162L8.63701 8.04618ZM8.68961 7.60641L8.0694 7.36542L7.57825 6.15498L8.80093 6.66876L8.68961 7.60641ZM7.44675 12.9699L8.62906 10.3998L9.3196 15.8936L7.44675 12.9699ZM6.19777 15.6832L7.23328 13.4323L9.16547 16.4483L6.19777 15.6832ZM6.43631 16.1884L9.2719 16.9193L8.11405 18.4178L6.43631 16.1884ZM6.47546 20.5402L6.18615 16.5701L7.84187 18.7701L6.47546 20.5402ZM4.0931 23.7141L6.12437 21.6339L6.48952 26.639C5.72436 25.7086 4.86255 24.6591 4.0931 23.7141L4.0931 23.7141ZM5.70295 21.451L3.82031 23.3789C3.09551 22.4883 2.47958 21.7244 2.14929 21.3011L5.70295 21.451ZM2.953 16.1645C3.51938 16.1401 4.54939 16.096 5.43444 16.0606L4.08637 17.7487C3.52305 16.9322 3.17441 16.4477 2.953 16.1645L2.953 16.1645ZM5.7794 21.0253L2.14134 20.8718L4.05701 18.4735C4.6289 19.3108 5.25339 20.2387 5.7794 21.0253L5.7794 21.0253ZM6.14333 27.4457L3.62458 28.9296L1.65814 26.7802L6.14333 27.4457ZM1.53887 26.3282L3.79095 24.023C4.7286 25.1735 5.71885 26.3778 6.25404 27.0286L1.53887 26.3282ZM6.60268 21.0779L8.10977 19.1255L9.78812 21.3562L6.60268 21.0779ZM8.66759 23.7979L6.69993 21.5177L9.88599 21.7953L8.66759 23.7979ZM10.4842 26.9827L9.15201 29.2996L7.23879 27.4702L10.4842 26.9827ZM7.19659 27.0426L8.72814 24.5251L10.4756 26.5497L7.19659 27.0426ZM6.97089 8.59728L6.69504 8.49635L5.95617 7.00761L6.97089 7.40029L6.97089 8.59728ZM8.34281 9.99488L7.17151 12.5399L5.86748 10.5038L8.34281 9.99488ZM3.31509 11.505L3.99157 12.7552L2.80742 14.9682L3.31509 11.505ZM2.06305 8.0994C2.05571 8.10674 2.04531 8.11347 2.04042 8.11958C1.71686 8.46822 0.690521 10.801 0.488067 11.2653C0.456262 11.3387 0.467883 11.4243 0.518649 11.4855C0.559629 11.5362 0.621406 11.565 0.685017 11.565C0.699696 11.565 0.714376 11.5638 0.728443 11.5607L2.94015 11.1056L0.00058631 31.1578C-0.00124862 31.1688 0.0018096 31.1798 0.0018096 31.1914C0.0018096 31.203 0.00119795 31.2134 0.00303289 31.2251C0.00609111 31.2446 0.0140425 31.2624 0.0219939 31.2801C0.0250521 31.2856 0.0250521 31.2917 0.028722 31.2979L0.0299453 31.2997C0.0470713 31.3278 0.0709254 31.3498 0.0996727 31.367C0.107624 31.3725 0.114964 31.3761 0.122915 31.3798C0.132702 31.3841 0.140653 31.3908 0.150439 31.3939L7.12502 33.5175L7.12564 33.5175L7.12747 33.5187C7.14888 33.5242 7.16967 33.5273 7.19108 33.5273C7.21249 33.5273 7.23512 33.5242 7.25714 33.5175L7.26142 33.5163L11.6127 32.0881C11.6151 32.0869 11.6176 32.085 11.62 32.0838C11.6298 32.0808 11.6371 32.0746 11.6457 32.0697C11.6616 32.0618 11.6769 32.052 11.6897 32.0392C11.6934 32.0361 11.6977 32.0355 11.7007 32.033C11.705 32.0282 11.7062 32.022 11.7099 32.0178C11.7203 32.0049 11.7295 31.9908 11.7374 31.9756C11.7411 31.9658 11.7454 31.9578 11.7484 31.9468C11.7527 31.9321 11.7552 31.9162 11.7564 31.9015C11.7576 31.8905 11.7588 31.8801 11.7582 31.8691C11.7576 31.8655 11.7588 31.8612 11.7588 31.8612L9.38077 12.9375L26.7802 10.2016L22.4375 38.1507C22.4216 38.2571 22.4853 38.3587 22.5874 38.3893L33.5481 41.7019C33.5683 41.7087 33.5891 41.7117 33.6092 41.7117L33.6098 41.7117C33.63 41.7117 33.6496 41.7093 33.6698 41.7025L40.511 39.7257C40.5153 39.7245 40.519 39.7208 40.5227 39.719C40.5331 39.7153 40.5422 39.7104 40.5514 39.7055C40.5673 39.6963 40.5814 39.6884 40.5936 39.6762C40.5973 39.6725 40.6028 39.6713 40.6065 39.667C40.6107 39.6633 40.612 39.6584 40.615 39.6535C40.626 39.6401 40.6346 39.6272 40.6413 39.6119C40.6462 39.6028 40.6511 39.5924 40.6542 39.582C40.6584 39.5679 40.6603 39.5538 40.6615 39.5379C40.6633 39.5269 40.6646 39.5153 40.6639 39.5037C40.6633 39.4994 40.6646 39.4957 40.6646 39.4957L36.5879 8.75141L39.7624 8.07248C39.7636 8.07187 39.7642 8.07126 39.7654 8.07065C39.818 8.05903 39.8657 8.02845 39.8969 7.98013C39.8969 7.98013 39.8969 7.97951 39.8976 7.97951C39.9012 7.97401 39.9012 7.96728 39.9043 7.96178C39.9141 7.94343 39.9239 7.92508 39.9281 7.90367C39.9294 7.89817 39.9275 7.89083 39.9281 7.8841C39.9306 7.8633 39.9312 7.84312 39.9275 7.82355C39.9275 7.82355 39.9281 7.81988 39.9275 7.81804C39.9257 7.80825 39.9202 7.80275 39.9177 7.79419C39.9122 7.77767 39.9061 7.76299 39.8976 7.74831C39.8896 7.73608 39.8804 7.72813 39.8713 7.71773C39.8633 7.70978 39.8596 7.70122 39.8505 7.6951C37.0461 5.4681 30.6085 0.404297 29.6342 0.0244658C29.6183 0.017126 29.6024 0.0134562 29.5852 0.00917467C29.5699 0.0055048 29.5534 0 29.543 0C29.0513 0 22.4155 0.522344 15.4819 2.26308C8.65169 3.97936 2.58356 7.63332 2.06672 8.09634C2.0655 8.09695 2.06428 8.09817 2.06305 8.0994L2.06305 8.0994Z" transform="translate(41.047066 42.89011)" id="Fill-102" fill="#FFFFFF" fill-rule="evenodd" stroke="none" />
        </g>
    </g>
</svg>